<svg xmlns="http://www.w3.org/2000/svg" viewBox="0 0 29.5 85.4"><path d="M14.7 52.6c-3.1 0-6.7-.5-10.3-4.4C.6 44.2.3 34.8.3 26.3V26c0-6.6 0-15.6 2.8-19.8C6.6 1.1 10 .1 14.7 0h.3c3.9 0 9 1.1 11.5 6.3 2.6 5.4 2.6 12.8 2.6 20 0 7.7-.5 17-4.3 21.5-2.9 3.3-6 4.8-10.1 4.8zM15.1 2h-.3c-4.2.1-7 .9-10 5.4C2.3 11 2.3 19.7 2.3 26v.3c0 5.9 0 16.8 3.6 20.6 3.1 3.3 6.1 3.8 8.9 3.8 3.5 0 6-1.2 8.6-4.2 3.5-4 3.9-13.4 3.9-20.2 0-6.9 0-14.1-2.4-19.1C22.7 2.9 18.4 2 15.1 2z"/><ellipse cx="14.6" cy="12" rx="3" ry="3.3"/><path d="M14.6 15.8c-1.9 0-3.5-1.7-3.5-3.8s1.6-3.8 3.5-3.8 3.5 1.7 3.5 3.8-1.6 3.8-3.5 3.8zm0-6.5c-1.4 0-2.5 1.2-2.5 2.8s1.1 2.8 2.5 2.8 2.5-1.2 2.5-2.8-1.1-2.8-2.5-2.8zM15.2 72.3L0 57.1l1.4-1.4 13.8 13.7L28 55.9l1.5 1.4"/><g><path d="M15.2 85.4L0 70.2l1.4-1.4 13.8 13.7L28 69l1.4 1.4"/></g></svg>