<?xml version="1.0" encoding="utf-8"?>
<!-- Generator: Adobe Illustrator 18.0.0, SVG Export Plug-In . SVG Version: 6.00 Build 0)  -->
<!DOCTYPE svg PUBLIC "-//W3C//DTD SVG 1.1//EN" "http://www.w3.org/Graphics/SVG/1.1/DTD/svg11.dtd">
<svg version="1.1"
	 id="Layer_1" xmlns:svg="http://www.w3.org/2000/svg" xmlns:sodipodi="http://sodipodi.sourceforge.net/DTD/sodipodi-0.dtd" xmlns:rdf="http://www.w3.org/1999/02/22-rdf-syntax-ns#" xmlns:dc="http://purl.org/dc/elements/1.1/" xmlns:cc="http://creativecommons.org/ns#" xmlns:inkscape="http://www.inkscape.org/namespaces/inkscape"
	 xmlns="http://www.w3.org/2000/svg" xmlns:xlink="http://www.w3.org/1999/xlink" x="0px" y="0px" viewBox="104 66 304 380"
	 enable-background="new 104 66 304 380" xml:space="preserve">
<g id="g5856">
	<path id="path9-3" fill="#FFFFFF" d="M386.8,268c-14.1-15.2-32.9-25.3-56.4-30.2v-2c16.3-6.8,29.1-17.4,38.4-31.9
		c9.3-14.5,13.9-31,13.9-49.5c0-16-3.4-30.1-10.1-42.4c-6.7-12.2-16.9-22-30.5-29.3c-12.6-6.8-26.1-11.3-40.4-13.4
		c-14.4-2.1-35.5-3.2-63.4-3.2H104v380h152.1c26.4,0,48.1-2.4,65.2-7.2c17.1-4.8,32.8-12.8,47.1-24c12.1-9.4,21.7-21.2,28.8-35.5
		c7.1-14.3,10.7-30.9,10.7-49.8C408,303.8,400.9,283.2,386.8,268L386.8,268z M199,135.7h6.6c17,0,29.8,0.1,38.4,0.4
		c8.6,0.3,16,1.7,22.3,4.5c6.6,2.9,11.5,7.6,14.7,14c3.2,6.5,4.7,12.8,4.7,18.9c0,8.3-1.5,15.7-4.3,21.9
		c-2.9,6.3-8.2,11.2-15.8,14.8c-7,3.2-13.7,5-20.3,5.4c-6.6,0.3-18,0.5-34.3,0.5h-12L199,135.7L199,135.7z M303.7,352.5
		c-4,7.2-10.3,12.7-19,16.5c-9.9,4.3-19.6,6.6-29.1,6.9c-9.5,0.3-26.7,0.5-51.5,0.5H199v-95.2h17.6c17,0,30.6,0.1,40.7,0.4
		c10.1,0.3,18.1,1.5,23.9,3.7c9.5,3.4,16.7,8.4,21.4,15.1c4.8,6.6,7.2,15.8,7.2,27.6C309.7,337,307.7,345.2,303.7,352.5L303.7,352.5
		z"/>
</g>
</svg>
