<?xml version="1.0" encoding="UTF-8" standalone="no"?>
<svg width="85px" height="184px" viewBox="0 0 85 184" version="1.1" xmlns="http://www.w3.org/2000/svg" xmlns:xlink="http://www.w3.org/1999/xlink">
    <!-- Generator: Sketch 41.2 (35397) - http://www.bohemiancoding.com/sketch -->
    <title>ar1</title>
    <desc>Created with Sketch.</desc>
    <defs></defs>
    <g id="Page-1" stroke="none" stroke-width="1" fill="none" fill-rule="evenodd">
        <g id="ar1" fill="#FFFFFF">
            <g id="Group">
                <path d="M64.7,7.6 L84.2,0 L81,20.9 L80.1,8 C80,6.6 78.8,5.5 77.3,5.8 L64.7,7.6 Z" id="Shape"></path>
                <polygon id="Path" fill-opacity="0.04" opacity="0.4" points="1.3 180.3 1.2 180.8 1 181.7 0.8 182.6 3 183.1 3.2 182.2 3.4 181.3 3.5 180.8"></polygon>
                <polygon id="Path" fill-opacity="0.08" opacity="0.4" points="2.2 175.9 2.1 176.4 1.9 177.3 1.7 178.1 3.9 178.6 4.1 177.8 4.3 176.9 4.4 176.4"></polygon>
                <polygon id="Path" fill-opacity="0.16" opacity="0.4" points="3.2 171.4 3.1 172 2.9 172.9 2.7 173.7 4.9 174.2 5.1 173.4 5.3 172.5 5.4 171.9"></polygon>
                <polygon id="Path" fill-opacity="0.2" opacity="0.4" points="4.2 167 4.1 167.6 3.9 168.5 3.7 169.2 5.9 169.7 6.1 169 6.3 168.1 6.5 167.5"></polygon>
                <polygon id="Path" fill-opacity="0.24" opacity="0.4" points="5.3 162.6 5.1 163.3 4.9 164.2 4.7 164.8 6.9 165.3 7.1 164.6 7.3 163.8 7.5 163.1"></polygon>
                <polygon id="Path" fill-opacity="0.28" opacity="0.4" points="6.4 158.2 6.2 159 6 159.8 5.8 160.3 8 160.9 8.1 160.3 8.3 159.5 8.5 158.7"></polygon>
                <polygon id="Path" fill-opacity="0.32" opacity="0.4" points="7.6 153.8 7.6 153.8 7.4 154.7 7.2 155.5 7 156 9.2 156.6 9.3 156.2 9.5 155.3 9.7 154.4 9.7 154.4"></polygon>
                <polygon id="Path" fill-opacity="0.36" opacity="0.4" points="8.8 149.4 8.8 149.6 8.6 150.4 8.4 151.3 8.3 151.6 10.5 152.2 10.6 151.9 10.8 151.1 11 150.3 11 150.1"></polygon>
                <polygon id="Path" fill-opacity="0.4" opacity="0.4" points="10 145 9.9 145.3 9.7 146.1 9.4 147 9.3 147.2 11.5 147.8 11.5 147.6 11.7 146.8 11.9 146 12 145.7"></polygon>
                <polygon id="Path" fill-opacity="0.44" opacity="0.4" points="11.3 140.6 11.1 141.1 10.9 141.9 10.7 142.7 10.7 142.7 12.9 143.4 12.9 143.4 13.1 142.6 13.3 141.8 13.5 141.3"></polygon>
                <polygon id="Path" fill-opacity="0.48" opacity="0.4" points="12.6 136.3 12.4 137 12.2 137.8 12 138.5 14.2 139.2 14.4 138.6 14.6 137.8 14.8 137.1"></polygon>
                <polygon id="Path" fill-opacity="0.52" opacity="0.4" points="14 131.9 14 131.9 13.7 132.8 13.4 133.6 13.3 134 15.4 134.7 15.6 134.3 15.8 133.5 16.1 132.7 16.1 132.6"></polygon>
                <polygon id="Path" fill-opacity="0.56" opacity="0.4" points="15.4 127.6 15.3 127.9 15 128.7 14.8 129.5 14.7 129.7 16.9 130.4 17 130.2 17.3 129.4 17.5 128.6 17.6 128.3"></polygon>
                <polygon id="Path" fill-opacity="0.6" opacity="0.4" points="16.9 123.3 16.7 123.8 16.4 124.6 16.1 125.4 18.2 126.1 18.4 125.3 18.7 124.5 19 124"></polygon>
                <polygon id="Path" fill-opacity="0.64" opacity="0.4" points="18.4 119 18.4 119 18.1 119.8 17.8 120.6 17.6 121.1 19.7 121.9 19.9 121.4 20.2 120.6 20.5 119.8 20.5 119.7"></polygon>
                <polygon id="Path" fill-opacity="0.68" opacity="0.4" points="19.9 114.7 19.8 115.1 19.5 115.9 19.2 116.7 19.1 116.9 21.2 117.7 21.3 117.5 21.6 116.7 21.9 115.9 22 115.5"></polygon>
                <polygon id="Path" fill-opacity="0.72" opacity="0.4" points="21.5 110.4 21.3 111.1 21 111.9 20.8 112.6 22.9 113.4 23.1 112.7 23.4 111.9 23.6 111.2"></polygon>
                <polygon id="Path" fill-opacity="0.76" opacity="0.4" points="23.1 106.2 23 106.5 22.7 107.3 22.4 108.1 22.3 108.4 24.4 109.2 24.5 108.9 24.8 108.1 25.1 107.3 25.2 107"></polygon>
                <polygon id="Path" fill-opacity="0.8" opacity="0.4" points="24.8 101.9 24.6 102.6 24.3 103.4 24 104.1 26.1 104.9 26.3 104.2 26.6 103.4 26.8 102.7"></polygon>
                <polygon id="Path" fill-opacity="0.84" opacity="0.4" points="26.5 97.7 26.4 98 26.1 98.8 25.8 99.6 25.7 99.9 27.8 100.8 27.9 100.5 28.2 99.8 28.5 99 28.6 98.7"></polygon>
                <polygon id="Path" fill-opacity="0.88" opacity="0.4" points="28.3 93.5 28.3 93.5 28 94.3 27.7 95.1 27.5 95.6 29.6 96.5 29.8 95.9 30.1 95.2 30.4 94.4 30.4 94.4"></polygon>
                <polygon id="Path" fill-opacity="0.92" opacity="0.4" points="30 89.4 29.8 89.9 29.5 90.6 29.2 91.4 29.2 91.5 31.3 92.4 31.3 92.3 31.6 91.6 31.9 90.9 32.1 90.4"></polygon>
                <polygon id="Path" fill-opacity="0.96" opacity="0.4" points="31.9 85.2 31.8 85.5 31.5 86.2 31.2 86.9 31.1 87.2 33.2 88.1 33.3 87.8 33.6 87.1 33.9 86.4 34 86.1"></polygon>
                <polygon id="Path" opacity="0.4" points="33.7 81 33.6 81.2 33.3 81.9 33 82.6 32.8 83.1 34.8 84 35 83.5 35.3 82.8 35.6 82.1 35.7 82"></polygon>
                <polygon id="Path" opacity="0.4" points="35.6 76.9 35.6 76.9 35.3 77.6 35 78.4 34.7 79 36.7 80 37 79.4 37.3 78.7 37.6 78 37.6 78"></polygon>
                <polygon id="Path" opacity="0.4" points="37.6 72.8 37.3 73.5 37 74.2 36.7 74.9 36.7 74.9 38.7 75.9 38.7 75.9 39 75.2 39.3 74.5 39.6 73.8"></polygon>
                <polygon id="Path" opacity="0.4" points="39.6 68.7 39.3 69.3 38.9 70 38.6 70.7 38.6 70.7 40.6 71.7 40.6 71.7 40.9 71 41.2 70.3 41.5 69.7"></polygon>
                <polygon id="Path" opacity="0.4" points="41.6 64.6 41.3 65.3 40.9 66 40.6 66.7 40.6 66.7 42.6 67.7 42.6 67.7 42.9 67 43.2 66.3 43.5 65.6"></polygon>
                <polygon id="Path" opacity="0.4" points="43.7 60.6 43.7 60.6 43.3 61.3 43 62 42.7 62.6 44.7 63.6 45 63 45.3 62.4 45.6 61.8 45.7 61.7"></polygon>
                <polygon id="Path" opacity="0.4" points="45.8 56.6 45.7 56.8 45.4 57.4 45 58.1 44.8 58.6 46.8 59.7 47 59.2 47.3 58.6 47.6 58 47.7 57.8"></polygon>
                <polygon id="Path" opacity="0.4" points="47.9 52.6 47.7 53 47.4 53.6 47 54.3 46.8 54.6 48.8 55.7 49 55.4 49.3 54.8 49.6 54.2 49.8 53.8"></polygon>
                <polygon id="Path" opacity="0.4" points="50.1 48.6 50.1 48.6 49.7 49.3 49.4 49.9 49.1 50.5 49.1 50.6 51.1 51.7 51.1 51.7 51.4 51.1 51.7 50.5 52 49.9 52 49.8"></polygon>
                <polygon id="Path" opacity="0.4" points="52.4 44.6 52.1 45 51.8 45.6 51.5 46.2 51.3 46.6 53.3 47.7 53.5 47.3 53.8 46.7 54.1 46.1 54.3 45.7"></polygon>
                <polygon id="Path" opacity="0.4" points="54.7 40.7 54.6 40.9 54.3 41.5 54 42.1 53.7 42.7 55.6 43.8 55.9 43.2 56.2 42.6 56.5 42 56.6 41.8"></polygon>
                <polygon id="Path" opacity="0.4" points="57 36.8 57 36.8 56.6 37.5 56.3 38 56 38.5 55.9 38.7 57.8 39.9 57.9 39.8 58.3 39.2 58.6 38.6 58.9 38.1 58.9 38"></polygon>
                <polygon id="Path" opacity="0.4" points="59.4 32.9 59.4 32.9 59 33.6 58.7 34.1 58.4 34.6 58.3 34.8 60.2 36 60.3 35.8 60.6 35.3 60.9 34.8 61.2 34.3 61.3 34.2"></polygon>
                <polygon id="Path" opacity="0.4" points="61.8 29.1 61.7 29.2 61.4 29.7 61 30.3 60.7 30.8 60.6 31 62.5 32.2 62.6 32 62.9 31.5 63.2 31 63.5 30.5 63.6 30.4"></polygon>
                <polygon id="Path" opacity="0.4" points="64.3 25.3 64.1 25.6 63.8 26.1 63.5 26.6 63.2 27.1 63.2 27.2 65.1 28.4 65.1 28.4 65.4 27.9 65.7 27.4 66 26.9 66.2 26.6"></polygon>
                <polygon id="Path" opacity="0.4" points="66.8 21.5 66.8 21.5 66.4 22 66.1 22.5 65.8 23 65.6 23.3 67.5 24.6 67.7 24.3 68 23.8 68.3 23.3 68.6 22.8 68.6 22.8"></polygon>
                <polygon id="Path" opacity="0.4" points="69.4 17.8 69.1 18.2 68.8 18.7 68.5 19.2 68.2 19.7 68.2 19.7 70 21 70 21 70.3 20.5 70.6 20 70.9 19.5 71.2 19.1"></polygon>
                <polygon id="Path" opacity="0.4" points="72.1 14.1 71.8 14.5 71.5 14.9 71.2 15.4 70.9 15.9 70.8 16 72.6 17.3 72.7 17.2 73 16.7 73.3 16.2 73.6 15.8 73.9 15.4"></polygon>
                <polygon id="Path" opacity="0.4" points="74.8 10.4 74.8 10.4 74.4 10.9 74.1 11.3 73.8 11.7 73.5 12.1 73.5 12.1 75.3 13.5 75.3 13.5 75.6 13.1 75.9 12.7 76.2 12.3 76.5 11.9 76.6 11.8"></polygon>
            </g>
        </g>
    </g>
</svg>