<?xml version="1.0" encoding="utf-8"?>
<!-- Generator: Adobe Illustrator 19.2.1, SVG Export Plug-In . SVG Version: 6.00 Build 0)  -->
<svg version="1.1" id="Слой_1" xmlns="http://www.w3.org/2000/svg" xmlns:xlink="http://www.w3.org/1999/xlink" x="0px" y="0px"
	 viewBox="0 0 64.2 29.8" style="enable-background:new 0 0 64.2 29.8;" xml:space="preserve">
<style type="text/css">
	.st0{fill:#FEFEFE;}
	.st1{opacity:0.4;fill:#FEFEFE;enable-background:new    ;}
</style>
<g>
	<path class="st0" d="M44.4,0l19.8,7L48.4,20.8L56,10.4c0.9-1.2,0.5-2.7-0.7-3.5L44.4,0z"/>
	<path class="st1" d="M2,26.8l-0.2,0.1l-0.2,0.1L1.5,27l-0.2,0.1l-0.2,0.1l-0.2,0.1l-0.2,0.1l-0.2,0.1l-0.2,0.1l-0.2,0.1L0,27.7l1,2
		l0.2-0.1l0.2-0.1l0.2-0.1l0.2-0.1l0.2-0.1l0.2-0.1l0.2-0.1l0.2-0.1L2.7,29l0.2-0.1L3,28.8L2,26.8z M48.5,9.1l-0.1,0l-0.2,0L48,9.3
		l-0.2,0l-0.2,0.1l-0.2,0l-0.2,0L47,9.6l-0.2,0l-0.2,0.1l-0.2,0l-0.1,0l0.6,2.2l0.1,0l0.2,0l0.2,0l0.2-0.1l0.2,0l0.2,0l0.2-0.1
		l0.2,0l0.2-0.1l0.2,0l0.2,0l0.1,0L48.5,9.1z M44.2,10.4L44.2,10.4l-0.2,0.1l-0.2,0.1l-0.2,0l-0.2,0.1l-0.2,0l-0.2,0.1l-0.2,0
		l-0.2,0.1l-0.2,0L42.2,11L42,11l0.7,2.2l0.2,0l0.2-0.1l0.2,0l0.2-0.1l0.2,0l0.2-0.1l0.2,0l0.2-0.1l0.2,0l0.2-0.1l0.2,0l0.1,0
		L44.2,10.4z M39.8,11.7l-0.2,0.1l-0.2,0l-0.2,0.1l-0.2,0.1l-0.2,0L38.7,12l-0.2,0.1l-0.2,0l-0.2,0.1l-0.2,0.1l-0.2,0.1h0l0.7,2.2
		l0,0l0.2-0.1l0.2,0l0.2-0.1l0.2-0.1l0.2,0l0.2-0.1l0.2-0.1l0.2,0l0.2-0.1l0.2-0.1l0.2,0L39.8,11.7z M35.5,13.1l-0.1,0l-0.2,0
		L35,13.2l-0.2,0.1l-0.2,0.1l-0.2,0.1l-0.2,0l-0.2,0.1l-0.2,0.1l-0.2,0.1l-0.2,0.1l-0.1,0l0.7,2.2l0.1,0l0.2-0.1l0.2-0.1l0.2-0.1
		l0.2-0.1l0.2,0l0.2-0.1l0.2-0.1l0.2-0.1l0.2,0l0.2-0.1l0.1,0L35.5,13.1z M31.3,14.5L31.3,14.5L31,14.6l-0.2,0.1l-0.2,0.1l-0.2,0.1
		l-0.2,0.1L30,15L29.8,15l-0.2,0.1l-0.2,0.1l-0.2,0.1l-0.2,0.1l0.7,2.1l0.2,0l0.2-0.1l0.2-0.1l0.2-0.1l0.2-0.1L31,17l0.2-0.1
		l0.2-0.1l0.2-0.1l0.2-0.1l0.2-0.1l0,0L31.3,14.5z M27,16.1l-0.2,0.1l-0.2,0.1l-0.2,0.1l-0.2,0.1L26,16.4l-0.2,0.1l-0.2,0.1
		l-0.2,0.1l-0.2,0.1l-0.2,0.1l-0.2,0.1h0l0.8,2.1h0l0.2-0.1l0.2-0.1l0.2-0.1l0.2-0.1l0.2-0.1l0.2-0.1l0.2-0.1l0.2-0.1l0.2-0.1
		l0.2-0.1l0.2-0.1L27,16.1z M22.7,17.7l-0.1,0l-0.2,0.1l-0.2,0.1L22.1,18L21.9,18l-0.2,0.1l-0.2,0.1l-0.2,0.1l-0.2,0.1l-0.2,0.1
		l-0.2,0.1l-0.1,0l0.8,2.1l0.1,0l0.2-0.1l0.2-0.1l0.2-0.1l0.2-0.1l0.2-0.1l0.2-0.1l0.2-0.1l0.2-0.1l0.2-0.1l0.2-0.1l0.1,0L22.7,17.7
		z M18.6,19.4L18.6,19.4l-0.3,0.1l-0.2,0.1l-0.2,0.1l-0.2,0.1l-0.2,0.1l-0.2,0.1l-0.2,0.1L17,20l-0.2,0.1l-0.2,0.1l-0.1,0.1l0.9,2.1
		l0.1,0l0.2-0.1l0.2-0.1L18,22l0.2-0.1l0.2-0.1l0.2-0.1l0.2-0.1l0.2-0.1l0.2-0.1l0.2-0.1l0.1,0L18.6,19.4z M14.4,21.1L14.4,21.1
		l-0.2,0.1L14,21.3l-0.2,0.1l-0.2,0.1l-0.2,0.1l-0.2,0.1L13,21.7l-0.2,0.1l-0.2,0.1l-0.2,0.1L12.3,22l0.9,2.1l0.2-0.1l0.2-0.1
		l0.2-0.1l0.2-0.1l0.2-0.1l0.2-0.1l0.2-0.1l0.2-0.1l0.2-0.1l0.2-0.1l0.2-0.1h0L14.4,21.1z M10.2,22.9L10.2,22.9L10,23l-0.2,0.1
		l-0.2,0.1l-0.2,0.1l-0.2,0.1l-0.2,0.1l-0.2,0.1l-0.2,0.1l-0.2,0.1l-0.2,0.1l-0.2,0.1l0,0l0.9,2.1l0,0l0.2-0.1l0.2-0.1l0.2-0.1
		l0.2-0.1l0.2-0.1l0.2-0.1l0.2-0.1l0.2-0.1l0.2-0.1l0.2-0.1l0.2-0.1l0,0L10.2,22.9z M6.1,24.8l-0.2,0.1L5.8,25l-0.2,0.1l-0.2,0.1
		l-0.2,0.1L5,25.3l-0.2,0.1l-0.2,0.1l-0.2,0.1l-0.2,0.1l-0.2,0.1l0,0l1,2.1v0l0.2-0.1l0.2-0.1l0.2-0.1l0.2-0.1L6,27.4l0.2-0.1
		l0.2-0.1l0.2-0.1L6.7,27l0.2-0.1l0.2-0.1L6.1,24.8z"/>
</g>
</svg>
