<?xml version="1.0" encoding="utf-8"?>
<!-- Generator: Adobe Illustrator 19.2.1, SVG Export Plug-In . SVG Version: 6.00 Build 0)  -->
<svg version="1.1" id="Слой_1" xmlns="http://www.w3.org/2000/svg" xmlns:xlink="http://www.w3.org/1999/xlink" x="0px" y="0px"
	 viewBox="0 0 233.5 65" style="enable-background:new 0 0 233.5 65;" xml:space="preserve">
<style type="text/css">
	.st0{fill:#FEFEFE;}
	.st1{opacity:0.4;fill:#FEFEFE;enable-background:new    ;}
</style>
<g>
	<path class="st0" d="M222.8,46.5l10.7,18.3l-21,0.3l12.5-3c1.4-0.3,2.2-1.7,1.7-3.1L222.8,46.5z"/>
	<path class="st1" d="M2.2,2.2L1.7,2.2L0.8,2.4L0,2.5l0.4,2.2l0.8-0.1l0.8-0.2l0.5-0.1L2.2,2.2z M222.8,57.3L222,57l-0.9-0.3
		l-0.4-0.2l-0.8,2.1l0.4,0.2l0.9,0.3l0.8,0.3L222.8,57.3z M218.7,55.7L218.7,55.7l-0.9-0.4l-0.9-0.3l-0.3-0.1l-0.8,2.1l0.3,0.1
		l0.9,0.3l0.9,0.3l0.1,0L218.7,55.7z M214.5,54l-0.2-0.1l-0.9-0.3l-0.9-0.3l-0.2-0.1l-0.8,2.1l0.2,0.1l0.9,0.3l0.9,0.3l0.2,0.1
		L214.5,54z M210.3,52.3l-0.3-0.1l-0.9-0.3l-0.9-0.4h0l-0.8,2.1l0,0l0.9,0.3l0.9,0.3l0.3,0.1L210.3,52.3z M206.1,50.6l-0.5-0.2
		l-0.9-0.3l-0.7-0.3l-0.8,2.1l0.7,0.3l0.9,0.4l0.5,0.2L206.1,50.6z M201.9,48.9l-0.7-0.3l-0.9-0.3l-0.5-0.2l-0.8,2.1l0.5,0.2
		l0.9,0.3l0.7,0.3L201.9,48.9z M197.8,47.2l-0.9-0.3l-0.9-0.4l-0.4-0.1l-0.8,2.1l0.3,0.1l0.9,0.4l0.9,0.3L197.8,47.2z M193.6,45.5
		l-0.2-0.1l-0.9-0.3l-0.9-0.4l-0.2,0l-0.8,2.1l0.1,0l0.9,0.4l0.9,0.3l0.2,0.1L193.6,45.5z M189.4,43.8l-0.4-0.2l-0.9-0.3l-0.8-0.3
		l-0.8,2.1l0.8,0.3l0.9,0.3l0.4,0.2L189.4,43.8z M185.2,42.1l-0.6-0.3l-0.9-0.3l-0.6-0.3l-0.8,2.1l0.6,0.3l0.9,0.3l0.6,0.3
		L185.2,42.1z M181.1,40.4l-0.8-0.3l-0.9-0.3l-0.4-0.2l-0.8,2.1l0.4,0.2l0.9,0.3l0.8,0.3L181.1,40.4z M176.9,38.7l-0.2-0.1l-0.9-0.4
		L175,38l-0.1-0.1L174,40l0.1,0.1l0.9,0.3l0.9,0.4l0.2,0.1L176.9,38.7z M172.7,37l-0.4-0.2l-0.9-0.4l-0.8-0.3l-0.8,2.1l0.8,0.3
		l0.9,0.3l0.4,0.2L172.7,37z M168.5,35.4l-0.7-0.3l-0.9-0.4l-0.5-0.2l-0.8,2.1l0.6,0.2l0.9,0.4l0.7,0.3L168.5,35.4z M164.3,33.7
		L164.3,33.7l-0.9-0.3l-0.9-0.4l-0.3-0.1l-0.8,2.1l0.3,0.1l0.9,0.3l0.9,0.3l0,0L164.3,33.7z M160.1,32l-0.2-0.1l-0.9-0.4l-0.9-0.3
		l-0.1,0l-0.8,2.1l0.1,0l0.9,0.3l0.9,0.3l0.2,0.1L160.1,32z M156,30.4l-0.5-0.2l-0.9-0.3l-0.7-0.3l-0.8,2.1l0.7,0.3l0.9,0.3l0.5,0.2
		L156,30.4z M151.8,28.8l-0.7-0.3l-0.9-0.3l-0.5-0.2l-0.8,2.1l0.5,0.2l0.9,0.3l0.7,0.3L151.8,28.8z M147.5,27.2L147.5,27.2l-1-0.4
		l-0.9-0.3l-0.3-0.1l-0.8,2.1l0.3,0.1l0.9,0.3l0.9,0.3l0,0L147.5,27.2z M143.3,25.6l-0.3-0.1l-0.9-0.3l-0.9-0.3l-0.1,0l-0.8,2.1
		l0.1,0l0.9,0.3l0.9,0.3l0.3,0.1L143.3,25.6z M139.1,24l-0.5-0.2l-0.9-0.3l-0.7-0.3l-0.8,2.2l0.7,0.3l0.9,0.3l0.5,0.2L139.1,24z
		 M134.8,22.5l-0.7-0.3l-0.9-0.3l-0.5-0.2l-0.7,2.1l0.5,0.2l0.9,0.3l0.7,0.3L134.8,22.5z M130.6,21L130.6,21l-0.9-0.3l-0.9-0.3
		l-0.3-0.1l-0.7,2.2l0.3,0.1l0.9,0.3l0.9,0.3l0,0L130.6,21z M126.3,19.5l-0.2-0.1l-0.9-0.3l-0.9-0.3l-0.1,0l-0.7,2.2l0.1,0l0.9,0.3
		l0.9,0.3l0.2,0.1L126.3,19.5z M122,18l-0.4-0.1l-0.9-0.3l-0.8-0.3l-0.7,2.2l0.8,0.3l0.9,0.3l0.4,0.1L122,18z M117.8,16.6l-0.6-0.2
		l-0.9-0.3l-0.7-0.2l-0.7,2.2l0.7,0.2l0.9,0.3l0.6,0.2L117.8,16.6z M113.5,15.2l-0.7-0.2l-0.9-0.3l-0.5-0.2l-0.7,2.2l0.5,0.2
		l0.9,0.3l0.7,0.2L113.5,15.2z M109.2,13.9L109.2,13.9l-0.9-0.3l-0.9-0.3l-0.4-0.1l-0.7,2.2l0.4,0.1l0.9,0.3l0.9,0.3l0,0L109.2,13.9
		z M104.8,12.6l-0.1,0l-0.9-0.3l-0.9-0.3l-0.2-0.1l-0.6,2.2l0.2,0.1l0.9,0.3l0.9,0.3l0.1,0L104.8,12.6z M100.5,11.3l-0.2-0.1
		L99.4,11l-0.9-0.2l-0.2,0l-0.6,2.2l0.1,0l0.9,0.3l0.9,0.3l0.2,0.1L100.5,11.3z M96.2,10.1L95.8,10l-0.9-0.3L94,9.5l-0.1,0l-0.6,2.2
		l0,0l0.9,0.2l0.9,0.2l0.4,0.1L96.2,10.1z M91.8,8.9l-0.4-0.1l-0.9-0.2l-0.9-0.2l-0.5,2.2l0.9,0.2l0.9,0.2l0.4,0.1L91.8,8.9z
		 M87.4,7.8l-0.5-0.1L86,7.5l-0.8-0.2l-0.5,2.2l0.8,0.2l0.9,0.2l0.5,0.1L87.4,7.8z M83,6.8l-0.5-0.1l-0.9-0.2l-0.8-0.2l-0.5,2.2
		l0.8,0.2L82,8.9L82.5,9L83,6.8z M78.6,5.8l-0.6-0.1l-0.9-0.2l-0.8-0.2l-0.5,2.2l0.8,0.2l0.9,0.2L78.1,8L78.6,5.8z M74.2,4.9
		l-0.6-0.1l-0.9-0.2L72,4.4l-0.4,2.2l0.8,0.2L73.2,7l0.5,0.1L74.2,4.9z M69.8,4l-0.5-0.1l-0.9-0.2l-0.8-0.1l-0.4,2.2L67.9,6l0.9,0.2
		l0.5,0.1L69.8,4z M65.3,3.2l-0.5-0.1L63.9,3l-0.8-0.1l-0.4,2.2l0.9,0.1l0.9,0.1l0.5,0.1L65.3,3.2z M60.8,2.5l-0.4-0.1l-0.9-0.1
		l-0.9-0.1h-0.1l-0.3,2.2h0l0.9,0.1l0.9,0.1l0.4,0.1L60.8,2.5z M56.4,1.9l-0.4,0l-0.9-0.1l-0.9-0.1l-0.1,0l-0.3,2.3H54L54.9,4
		l0.9,0.1l0.3,0L56.4,1.9z M51.9,1.3l-0.2,0l-0.9-0.1l-0.9-0.1l-0.3,0l-0.2,2.3l0.2,0l0.9,0.1l0.9,0.1l0.2,0L51.9,1.3z M47.4,0.9
		l-0.1,0l-0.9-0.1l-0.9-0.1l-0.4,0l-0.2,2.3l0.4,0L46.2,3l0.9,0.1h0.1L47.4,0.9z M42.9,0.5L42,0.4l-0.9,0l-0.5,0l-0.1,2.3l0.5,0
		l0.9,0l0.8,0.1L42.9,0.5z M38.3,0.2l-0.7,0l-0.9,0l-0.7,0L36,2.4l0.7,0l0.9,0l0.7,0L38.3,0.2z M33.8,0.1l-0.5,0l-0.9,0h-0.9h0
		l0,2.3h0l0.9,0h0.8l0.5,0L33.8,0.1z M29.3,0H29h-0.9l-0.9,0H27l0,2.3h0.2l0.8,0H29h0.3L29.3,0L29.3,0z M24.8,0L24.8,0l-0.9,0
		l-0.9,0h-0.5l0.1,2.3l0.5,0l0.9,0l0.8,0h0.1L24.8,0z M20.3,0.2l-0.7,0l-0.8,0.1l-0.7,0l0.2,2.3l0.7,0l0.9-0.1l0.7,0L20.3,0.2z
		 M15.7,0.5l-0.5,0l-0.9,0.1l-0.9,0.1l-0.1,0L13.7,3l0.1,0l0.8-0.1l0.8-0.1l0.5,0L15.7,0.5z M11.2,0.9l-0.2,0l-0.9,0.1L9.3,1.1
		L9,1.2l0.3,2.2l0.3,0l0.8-0.1l0.8-0.1l0.2,0L11.2,0.9z M6.7,1.5L5.9,1.6L5.1,1.7L4.5,1.8L4.8,4l0.6-0.1l0.8-0.1L7,3.7L6.7,1.5z"/>
</g>
</svg>
