<?xml version="1.0" encoding="utf-8"?>
<!-- Generator: Adobe Illustrator 19.2.1, SVG Export Plug-In . SVG Version: 6.00 Build 0)  -->
<svg version="1.1" id="Слой_1" xmlns="http://www.w3.org/2000/svg" xmlns:xlink="http://www.w3.org/1999/xlink" x="0px" y="0px"
	 viewBox="0 0 108 60.2" style="enable-background:new 0 0 108 60.2;" xml:space="preserve">
<style type="text/css">
	.st0{fill:#FEFEFE;}
	.st1{opacity:0.4;fill:#FEFEFE;enable-background:new    ;}
</style>
<g>
	<path class="st0" d="M108,21.1l-2-21.1L88.9,12.3l11.8-5c1.3-0.6,2.8,0.1,3.2,1.5L108,21.1z"/>
	<path class="st1" d="M2.6,56.2l-0.2,0l-0.5-0.1L1.3,56L0.8,56l-0.5-0.1L0,58.1l0.5,0.1L1,58.3l0.5,0.1L2,58.4l0.2,0L2.6,56.2z
		 M99.8,11.9l-0.1,0.2l-0.2,0.5l-0.2,0.5L99,13.6l-0.2,0.3l2,1l0.2-0.3l0.2-0.5l0.2-0.5l0.2-0.5l0.1-0.2L99.8,11.9z M97.8,15.9
		L97.8,15.9l-0.3,0.6L97.2,17L97,17.4l-0.2,0.5l2,1.1l0.2-0.5l0.3-0.5l0.2-0.5l0.3-0.5l0-0.1L97.8,15.9z M95.6,19.8l-0.2,0.3
		l-0.3,0.5l-0.3,0.4l-0.3,0.4l-0.1,0.2l1.9,1.2l0.1-0.2l0.3-0.5l0.3-0.4l0.3-0.5l0.2-0.4L95.6,19.8z M93.3,23.6L93.3,23.6l-0.3,0.5
		l-0.3,0.4l-0.3,0.4l-0.3,0.4L92,25.5l1.8,1.3l0.1-0.2l0.3-0.4l0.3-0.4l0.3-0.4l0.3-0.4l0,0L93.3,23.6z M90.7,27.3L90.7,27.3
		l-0.3,0.5l-0.3,0.4l-0.3,0.4l-0.3,0.4l-0.1,0.1l1.8,1.4l0.1-0.2l0.3-0.4l0.3-0.4l0.3-0.4l0.3-0.4l0-0.1L90.7,27.3z M87.9,30.8
		l-0.3,0.4l-0.3,0.4L87,31.9l-0.3,0.4l-0.2,0.3l1.7,1.5l0.2-0.3l0.3-0.4L89,33l0.3-0.4l0.3-0.4L87.9,30.8z M85,34.2l-0.2,0.2
		l-0.3,0.3L84.2,35l-0.3,0.3l-0.3,0.3l-0.1,0.1l1.6,1.6l0.1-0.1l0.3-0.3l0.3-0.3l0.3-0.3l0.3-0.4l0.2-0.2L85,34.2z M81.9,37.3
		l-0.3,0.3L81.2,38l-0.3,0.3l-0.3,0.3l-0.3,0.3l1.5,1.7l0.3-0.3l0.4-0.3l0.3-0.3l0.3-0.3l0.3-0.3L81.9,37.3z M78.6,40.3L78.6,40.3
		l-0.4,0.3l-0.3,0.3l-0.3,0.3l-0.3,0.3l-0.3,0.3l1.4,1.8l0.3-0.3l0.4-0.3l0.4-0.3l0.3-0.3l0.4-0.3l0,0L78.6,40.3z M75.1,43.1
		L75.1,43.1l-0.4,0.3l-0.4,0.3L74,43.9l-0.4,0.3l-0.4,0.2l1.3,1.9l0.4-0.3l0.4-0.3l0.4-0.3l0.4-0.3l0.4-0.3l0,0L75.1,43.1z
		 M71.4,45.6l-0.3,0.2l-0.4,0.2l-0.4,0.2L70,46.5l-0.4,0.2l-0.1,0l1.1,2l0.1,0l0.4-0.2l0.4-0.2l0.4-0.3l0.4-0.2l0.3-0.2L71.4,45.6z
		 M67.6,47.9l-0.3,0.2L67,48.3l-0.4,0.2l-0.4,0.2l-0.4,0.2l-0.2,0.1l1,2l0.2-0.1l0.4-0.2l0.4-0.2l0.4-0.2l0.4-0.2l0.3-0.2L67.6,47.9
		z M63.7,49.9L63.5,50l-0.4,0.2l-0.4,0.2l-0.4,0.2L62,50.7l-0.3,0.1l0.9,2.1l0.3-0.1l0.4-0.2l0.4-0.2l0.4-0.2l0.4-0.2l0.2-0.1
		L63.7,49.9z M59.6,51.7L59.6,51.7l-0.4,0.2l-0.4,0.2l-0.4,0.2L58,52.4l-0.4,0.1l0,0l0.8,2.1h0l0.4-0.2l0.4-0.2l0.4-0.2L60,54
		l0.4-0.2h0L59.6,51.7z M55.5,53.3l-0.3,0.1l-0.4,0.1l-0.4,0.1l-0.4,0.1l-0.4,0.1l-0.1,0l0.7,2.2l0.1,0l0.4-0.1l0.4-0.1l0.4-0.1
		l0.4-0.1l0.3-0.1L55.5,53.3z M51.2,54.6L51,54.6l-0.4,0.1l-0.4,0.1L49.7,55l-0.4,0.1l-0.2,0.1l0.5,2.2l0.2,0l0.4-0.1l0.4-0.1
		l0.4-0.1l0.4-0.1l0.2-0.1L51.2,54.6z M46.9,55.7l-0.2,0l-0.4,0.1l-0.4,0.1L45.4,56L45,56l-0.3,0.1l0.4,2.2l0.3,0l0.5-0.1l0.4-0.1
		l0.5-0.1l0.4-0.1l0.2,0L46.9,55.7z M42.5,56.5l-0.1,0L42,56.6l-0.4,0.1l-0.5,0.1l-0.4,0.1l-0.3,0l0.3,2.3l0.3,0l0.4-0.1l0.5-0.1
		l0.5-0.1l0.5-0.1l0.1,0L42.5,56.5z M38.1,57.1l-0.1,0l-0.5,0l-0.4,0.1l-0.5,0l-0.5,0l-0.3,0l0.2,2.3l0.3,0l0.5-0.1l0.5,0l0.5,0
		l0.5,0l0.1,0L38.1,57.1z M33.7,57.6l-0.2,0l-0.5,0l-0.5,0l-0.5,0l-0.5,0h-0.2l0.1,2.3l0.2,0l0.5,0l0.5,0l0.5,0l0.5,0h0.2L33.7,57.6
		z M29.3,57.9l-0.3,0h-0.5l-0.5,0h-0.5l-0.5,0h-0.1l0,2.3h0.1h0.5l0.5,0h0.5l0.5,0l0.3,0L29.3,57.9z M24.8,57.9L24.8,57.9h-0.5h-0.5
		h-0.5h-0.5l-0.3,0l0,2.3l0.4,0h0.5h0.5h0.5h0.5l0,0L24.8,57.9L24.8,57.9z M20.4,57.9h-0.2l-0.5,0l-0.5,0l-0.5,0l-0.5,0h-0.1
		L18,60.1h0.1l0.5,0l0.5,0l0.5,0l0.5,0h0.2L20.4,57.9z M15.9,57.7L15.9,57.7l-0.5,0l-0.5,0l-0.5,0l-0.5,0l-0.3,0l-0.2,2.3l0.3,0
		l0.5,0l0.5,0l0.5,0l0.5,0h0L15.9,57.7z M11.5,57.3l-0.4,0l-0.5,0l-0.5,0l-0.5,0l-0.4,0L9,59.3l0.4,0l0.5,0.1l0.5,0l0.5,0l0.4,0
		L11.5,57.3z M7,56.8l-0.3,0l-0.5-0.1l-0.5,0l-0.5-0.1l-0.5-0.1l-0.3,2.3l0.5,0l0.5,0.1L5.9,59L6.4,59l0.3,0L7,56.8z"/>
</g>
</svg>
