<?xml version="1.0" encoding="utf-8"?>
<!-- Generator: Adobe Illustrator 19.2.1, SVG Export Plug-In . SVG Version: 6.00 Build 0)  -->
<svg version="1.1" id="Слой_1" xmlns="http://www.w3.org/2000/svg" xmlns:xlink="http://www.w3.org/1999/xlink" x="0px" y="0px"
	 viewBox="0 0 120.4 37.6" style="enable-background:new 0 0 120.4 37.6;" xml:space="preserve">
<style type="text/css">
	.st0{fill:#FEFEFE;}
	.st1{opacity:0.4;fill:#FEFEFE;enable-background:new    ;}
</style>
<g>
	<path class="st0" d="M115.2,20.5L120.4,0l-20.2,5.7L113,5c1.4-0.1,2.6,1.1,2.5,2.5L115.2,20.5z"/>
	<path class="st1" d="M1.8,34.4l-0.2,0.2l-0.3,0.2L1,35l-0.3,0.2l-0.2,0.2l-0.3,0.3L0,35.9l1.5,1.6l0.2-0.2L2,37.1l0.2-0.2l0.2-0.2
		l0.2-0.2L3,36.3l0.2-0.2L1.8,34.4z M109.3,7.9L109.2,8l-0.2,0.2l-0.2,0.2l-0.2,0.2l-0.2,0.2L108.3,9l-0.2,0.2L108,9.3l-0.1,0
		l1.5,1.7l0.1-0.1l0.2-0.2l0.2-0.2l0.2-0.2l0.2-0.2l0.2-0.2l0.2-0.2l0.2-0.2l0.1-0.1L109.3,7.9z M106.2,10.7L106.2,10.7l-0.3,0.2
		l-0.2,0.2l-0.2,0.2l-0.3,0.2l-0.2,0.2l-0.3,0.2l-0.2,0.1l1.1,2l0.2-0.1l0.3-0.2l0.3-0.2l0.3-0.2l0.3-0.2l0.3-0.2l0.2-0.2l0,0
		L106.2,10.7z M102.5,12.9l-0.2,0.1l-0.3,0.1l-0.3,0.2l-0.3,0.1l-0.3,0.1l-0.3,0.1l-0.2,0.1l0.8,2.1l0.3-0.1l0.4-0.2l0.3-0.1
		l0.3-0.2l0.3-0.1l0.3-0.2l0.2-0.1L102.5,12.9z M98.5,14.5l-0.1,0L98,14.7l-0.4,0.1L97.3,15l-0.4,0.1l-0.4,0.1l-0.1,0l0.6,2.2l0.2,0
		l0.4-0.1l0.4-0.1l0.4-0.1l0.4-0.1l0.4-0.1l0.1,0L98.5,14.5z M94.2,15.8L94.2,15.8L93.8,16l-0.4,0.1L93,16.2l-0.4,0.1l-0.4,0.1l0,0
		l0.5,2.2l0.1,0l0.4-0.1l0.4-0.1l0.4-0.1l0.4-0.1l0.4-0.1h0L94.2,15.8z M89.9,16.9L89.6,17l-0.5,0.1l-0.4,0.1l-0.5,0.1l-0.5,0.1h0
		l0.4,2.2l0.1,0l0.5-0.1l0.5-0.1l0.4-0.1l0.5-0.1l0.4-0.1L89.9,16.9z M85.5,17.8L85.5,17.8l-0.5,0.1l-0.5,0.1L84.1,18l-0.5,0.1
		l-0.3,0l0.4,2.2l0.3,0l0.5-0.1l0.5-0.1l0.5-0.1l0.5-0.1h0L85.5,17.8z M81.1,18.5l-0.4,0.1l-0.5,0.1l-0.5,0.1l-0.5,0.1l-0.4,0.1
		l0.3,2.2l0.4-0.1l0.5-0.1l0.5-0.1l0.5-0.1l0.4,0L81.1,18.5z M76.7,19.1l-0.4,0l-0.5,0.1l-0.5,0.1l-0.5,0.1l-0.3,0l0.3,2.2l0.3,0
		l0.5-0.1l0.5,0l0.5-0.1l0.4-0.1L76.7,19.1z M72.2,19.7L72.2,19.7l-0.5,0.1l-0.5,0.1l-0.5,0.1l-0.5,0l-0.1,0l0.2,2.2h0.1l0.5-0.1
		l0.5-0.1l0.5,0l0.5-0.1h0L72.2,19.7z M67.8,20.2l-0.3,0l-0.5,0l-0.5,0.1l-0.5,0l-0.3,0l0.2,2.3l0.4,0l0.5,0l0.5-0.1l0.5,0l0.3,0
		L67.8,20.2z M63.3,20.7L63.3,20.7l-0.6,0.1l-0.5,0.1l-0.5,0l-0.5,0h0l0.2,2.3h0l0.5,0l0.5-0.1l0.5,0l0.5-0.1h0.1L63.3,20.7z
		 M58.8,21.1l-0.5,0l-0.5,0.1l-0.5,0l-0.5,0.1h-0.2l0.2,2.3l0.2,0l0.5,0l0.5-0.1l0.5,0l0.5,0L58.8,21.1z M54.4,21.6l-0.3,0l-0.5,0
		l-0.5,0l-0.5,0.1l-0.3,0l0.2,2.3l0.3,0l0.5-0.1l0.5,0l0.5-0.1l0.3,0L54.4,21.6z M49.9,22l-0.2,0l-0.5,0.1l-0.5,0l-0.5,0.1l-0.4,0
		l0.2,2.3l0.4,0l0.5-0.1l0.5-0.1l0.5,0l0.2,0L49.9,22z M45.4,22.5L45.4,22.5l-0.6,0.1l-0.5,0l-0.5,0.1l-0.5,0.1h-0.1l0.3,2.3l0,0
		l0.5,0l0.5-0.1l0.5-0.1l0.5,0l0,0L45.4,22.5z M40.9,23.1l-0.4,0L40,23.2l-0.5,0.1L39,23.3l-0.3,0l0.3,2.3l0.3,0l0.5-0.1l0.5-0.1
		l0.5-0.1l0.4,0L40.9,23.1z M36.4,23.6l-0.1,0l-0.5,0.1l-0.5,0.1l-0.5,0.1L34.2,24h0l0.3,2.2h0l0.5-0.1l0.5-0.1l0.5-0.1l0.5-0.1h0.1
		L36.4,23.6z M32,24.3l-0.3,0l-0.5,0.1l-0.5,0.1l-0.5,0.1l-0.4,0.1l0.4,2.2l0.4-0.1l0.5-0.1l0.5-0.1l0.5-0.1l0.3,0L32,24.3z
		 M27.5,25.1l-0.3,0.1l-0.5,0.1l-0.5,0.1l-0.5,0.1l-0.4,0.1l0.4,2.2l0.4-0.1l0.5-0.1l0.5-0.1l0.5-0.1l0.3,0L27.5,25.1z M23,26
		l-0.2,0l-0.5,0.1l-0.5,0.1l-0.5,0.1L21,26.4l-0.1,0l0.5,2.2l0.1,0l0.5-0.1l0.5-0.1l0.5-0.1l0.5-0.1l0.2,0L23,26z M18.6,27l-0.4,0.1
		l-0.4,0.1l-0.5,0.1l-0.4,0.1l-0.4,0.1l-0.1,0l0.6,2.2l0,0l0.4-0.1l0.4-0.1l0.4-0.1l0.4-0.1l0.4-0.1L18.6,27z M14.2,28.3l-0.3,0.1
		l-0.4,0.1l-0.4,0.1l-0.4,0.1L12.3,29L12.1,29l0.8,2.1l0.2-0.1l0.4-0.1l0.4-0.1l0.4-0.1l0.4-0.1l0.3-0.1L14.2,28.3z M9.9,29.8
		L9.5,30l-0.4,0.2l-0.4,0.2l-0.4,0.2l-0.4,0.2l-0.2,0.1l1,2.1L9,32.7l0.3-0.2l0.4-0.2l0.3-0.2l0.4-0.1l0.4-0.2L9.9,29.8z M5.7,31.8
		l-0.1,0.1l-0.3,0.2l-0.3,0.2l-0.3,0.2l-0.3,0.2L4,32.9L3.7,33l1.2,1.9l0.2-0.1l0.3-0.2l0.3-0.2l0.3-0.2l0.3-0.2l0.3-0.2l0.1-0.1
		L5.7,31.8z"/>
</g>
</svg>
