<?xml version="1.0" encoding="utf-8"?>
<!-- Generator: Adobe Illustrator 19.2.1, SVG Export Plug-In . SVG Version: 6.00 Build 0)  -->
<svg version="1.1" id="Слой_1" xmlns="http://www.w3.org/2000/svg" xmlns:xlink="http://www.w3.org/1999/xlink" x="0px" y="0px"
	 viewBox="0 0 35 124.9" style="enable-background:new 0 0 35 124.9;" xml:space="preserve">
<style type="text/css">
	.st0{fill:#FEFEFE;}
	.st1{opacity:0.4;fill:#FEFEFE;enable-background:new    ;}
</style>
<g>
	<path class="st0" d="M35,13.8L19,0l-3.9,20.8l5.1-11.9c0.6-1.4,2.1-1.9,3.4-1.2L35,13.8z"/>
	<path class="st1" d="M1.3,121.7l-0.1,0.2l-0.2,0.3l-0.2,0.3l-0.2,0.3l-0.2,0.3L0,123.6l1.8,1.3l0.2-0.3l0.2-0.3l0.2-0.3l0.2-0.3
		l0.2-0.3l0.1-0.2L1.3,121.7z M22,12.9l0.2,0.3l0.2,0.5l0.2,0.5l0.2,0.5l0.1,0.2l2.1-0.9l-0.1-0.2l-0.2-0.5l-0.2-0.5l-0.2-0.5
		L24,11.9L22,12.9z M23.8,17l0.2,0.4l0.2,0.5l0.2,0.5l0.2,0.5l0.1,0.2l2.1-0.8L26.6,18l-0.2-0.5L26.2,17L26,16.5l-0.2-0.4L23.8,17z
		 M25.4,21.2l0.1,0.3l0.2,0.5l0.2,0.5L26,23l0.1,0.3l2.1-0.7l-0.1-0.3L28,21.7l-0.2-0.5l-0.2-0.5l-0.1-0.3L25.4,21.2z M26.8,25.4
		L26.8,25.4l0.2,0.6l0.1,0.5l0.1,0.5l0.1,0.5l0,0.1l2.2-0.6l0-0.1l-0.1-0.5l-0.1-0.5l-0.2-0.5l-0.2-0.5l0-0.1L26.8,25.4z M27.9,29.8
		L28,30l0.1,0.5l0.1,0.5l0.1,0.5l0.1,0.4l2.2-0.5L30.5,31l-0.1-0.5L30.3,30l-0.1-0.5l-0.1-0.3L27.9,29.8z M28.8,34.1l0.1,0.4L29,35
		l0.1,0.5l0.1,0.5l0.1,0.4l2.2-0.3l-0.1-0.4l-0.1-0.5l-0.1-0.5l-0.1-0.5l-0.1-0.4L28.8,34.1z M29.5,38.5l0,0.4l0.1,0.5l0,0.5l0,0.5
		l0,0.4l2.2-0.2l0-0.4l0-0.5l-0.1-0.5l0-0.5l0-0.4L29.5,38.5z M30,43l0,0.3l0,0.5l0,0.5l0,0.5l0,0.5v0l2.2-0.1v0l0-0.5l0-0.5l0-0.5
		l0-0.5l0-0.3L30,43z M30.1,47.5v0.1v0.5v0.5V49v0.5l0,0.2l2.3,0v-0.2v-0.5v-0.5v-0.5v-0.5v-0.1L30.1,47.5z M30,52v0.4l0,0.5l0,0.5
		l0,0.5l0,0.5l2.2,0.2l0-0.5l0-0.5l0-0.5l0-0.5v-0.4L30,52z M29.7,56.4v0.1l0,0.5l0,0.5l-0.1,0.5l0,0.5l0,0.3l2.2,0.3l0-0.3l0.1-0.5
		l0-0.5l0-0.5l0.1-0.5v-0.1L29.7,56.4z M29.2,60.9l0,0.3l-0.1,0.5L29,62.1l-0.1,0.5L28.8,63l0,0.1l2.2,0.4v-0.1l0.1-0.5l0.1-0.5
		l0.1-0.5l0.1-0.5l0-0.3L29.2,60.9z M28.4,65.3l-0.1,0.4l-0.1,0.4l-0.1,0.5L28,67.1l-0.1,0.4l2.2,0.5l0.1-0.5l0.1-0.5l0.1-0.5
		l0.1-0.5l0.1-0.4L28.4,65.3z M27.4,69.7L27.4,69.7l-0.1,0.5l-0.1,0.4l-0.1,0.5l-0.1,0.4l-0.1,0.3l2.2,0.6l0.1-0.3l0.1-0.4l0.1-0.5
		l0.1-0.5l0.1-0.5l0-0.1L27.4,69.7z M26.2,74l0,0.1L26,74.6L25.9,75l-0.1,0.5l-0.1,0.4l-0.1,0.2l2.1,0.7l0.1-0.3l0.1-0.4l0.1-0.5
		l0.1-0.4l0.1-0.5l0-0.2L26.2,74z M24.8,78.3l-0.1,0.2L24.6,79l-0.2,0.4l-0.2,0.4l-0.2,0.4l-0.1,0.2l2.1,0.8l0.1-0.2l0.2-0.4
		l0.2-0.4l0.2-0.4l0.2-0.4L27,79L24.8,78.3z M23.3,82.5l-0.1,0.3L23,83.2l-0.2,0.4L22.7,84l-0.2,0.4l-0.1,0.1l2.1,0.9l0.1-0.1
		l0.2-0.4l0.2-0.4l0.2-0.4l0.2-0.4l0.1-0.3L23.3,82.5z M21.6,86.7L21.5,87l-0.2,0.4l-0.2,0.4l-0.2,0.4l-0.2,0.4l0,0.1l2,0.9l0.1-0.1
		l0.2-0.4l0.2-0.4l0.2-0.4l0.2-0.4l0.1-0.3L21.6,86.7z M19.7,90.8l-0.1,0.3l-0.2,0.4l-0.2,0.4L19,92.3l-0.2,0.4l0,0.1l2,1l0.1-0.1
		l0.2-0.4l0.2-0.4l0.2-0.4l0.2-0.4l0.1-0.3L19.7,90.8z M17.8,94.8l-0.1,0.3l-0.2,0.4l-0.2,0.4L17,96.3l-0.2,0.4l0,0.1l2,1.1l0.1-0.1
		l0.2-0.4l0.2-0.4l0.2-0.4l0.2-0.4l0.1-0.3L17.8,94.8z M15.7,98.8l-0.1,0.3l-0.2,0.4l-0.2,0.4l-0.2,0.4l-0.2,0.4l-0.1,0.2l2,1.1
		l0.1-0.2l0.2-0.4l0.2-0.4l0.2-0.4l0.2-0.4l0.1-0.3L15.7,98.8z M13.5,102.7l-0.1,0.2l-0.2,0.4l-0.2,0.4l-0.2,0.4l-0.2,0.4l-0.1,0.3
		l1.9,1.2l0.1-0.3l0.2-0.4l0.2-0.4l0.2-0.4l0.2-0.4l0.1-0.2L13.5,102.7z M11.2,106.6L11.2,106.6l-0.3,0.5l-0.2,0.4l-0.2,0.4
		l-0.2,0.4l-0.2,0.3l1.9,1.2l0.2-0.4l0.2-0.4l0.2-0.4l0.2-0.4l0.2-0.4l0-0.1L11.2,106.6z M8.8,110.5l-0.2,0.3l-0.2,0.4l-0.2,0.3
		l-0.2,0.4l-0.2,0.4l-0.1,0.2l1.9,1.2l0.1-0.2l0.2-0.4l0.2-0.4l0.2-0.4l0.2-0.4l0.2-0.3L8.8,110.5z M6.4,114.2l-0.1,0.1l-0.2,0.3
		L5.8,115l-0.2,0.4l-0.2,0.3l-0.2,0.3l0,0l1.9,1.3v0l0.2-0.3l0.2-0.4l0.2-0.3l0.2-0.4l0.2-0.4l0.1-0.1L6.4,114.2z M3.9,118l-0.1,0.2
		l-0.2,0.3l-0.2,0.3L3,119.2l-0.2,0.3l-0.2,0.3l1.8,1.3l0.2-0.3l0.2-0.3l0.2-0.3l0.2-0.3l0.2-0.4l0.1-0.2L3.9,118z"/>
</g>
</svg>
