<svg id="Слой_1" data-name="Слой 1" xmlns="http://www.w3.org/2000/svg" width="52.59mm" height="32.53mm" viewBox="0 0 149.09 92.21"><defs><style>.cls-1,.cls-2{fill:none;stroke:#ffcc00;stroke-miterlimit:10;}.cls-1{stroke-width:2.43px;}.cls-2{stroke-width:1.21px;}</style></defs><title>step-img2</title><path class="cls-1" d="M74.54,64c-7.1,0-13.18-6.21-15.74-15-3.24-2.29-5.65-13.12-1.47-12.8C51.68,14,76.38,3,87.42,17c5.21,2,6.76,9.3,4.31,19.17,4.17-.32,1.77,10.51-1.45,12.8-2.59,8.82-8.66,15-15.74,15h0ZM37.74,91.53c0-2.59-.2-5.5-0.29-8.34C37,68.74,50.51,68.14,61.05,62.33l8.1,26.82,0.16,0.23L72.39,78a11.87,11.87,0,0,1-2.63-6.67c0-2.45,2.13-3.64,4.79-3.64s4.76,1.19,4.76,3.64A12,12,0,0,1,76.7,78l3.06,11.34,0.18-.23L88,62.33c10.54,5.82,24.08,6.41,23.63,20.87-0.09,2.84-.36,5.75-0.32,8.34"/><path class="cls-2" d="M0.82,56c0-1.79-.16-3.78-0.2-5.7C0.28,40.36,9.57,39.95,16.81,36l5.56,18.42,0.11,0.14,2.11-7.76a7.57,7.57,0,0,1-1.79-4.56c0-1.44,1.45-2.52,3.27-2.52s3.27,1.08,3.27,2.52a7.57,7.57,0,0,1-1.79,4.56l2.11,7.76,0.11-.14L35.31,36c7.23,4,16.53,4.4,16.21,14.34-0.07,1.92-.25,3.92-0.2,5.7m46.44,0c0-1.79-.14-3.78-0.2-5.7-0.34-9.94,9-10.35,16.19-14.34l5.56,18.42,0.11,0.14,2.11-7.76a8.22,8.22,0,0,1-1.79-4.56c0-1.69,1.45-2.52,3.27-2.52s3.29,0.82,3.29,2.52a8.26,8.26,0,0,1-1.81,4.56l2.13,7.76,0.09-.14L132.26,36c7.23,4,16.53,4.4,16.21,14.34-0.07,1.92-.25,3.92-0.2,5.7M26.06,37.08c-4.85,0-9-4.26-10.79-10.31-2.22-1.56-3.88-9-1-8.77C10.39,2.82,27.33-4.69,34.9,4.84c3.58,1.4,4.63,6.39,2.95,13.17,2.88-.23,1.22,7.21-1,8.77-1.75,6-5.92,10.31-10.79,10.31h0Zm96.94,0c-4.85,0-9-4.26-10.79-10.31-2.22-1.56-3.85-9-1-8.77-3.88-15.19,13.06-22.7,20.64-13.17,3.58,1.4,4.63,6.39,2.95,13.17,2.88-.23,1.22,7.21-1,8.77-1.75,6-5.92,10.31-10.79,10.31h0Z"/></svg>