<svg id="Слой_1" data-name="Слой 1" xmlns="http://www.w3.org/2000/svg" width="94px" height="95px" viewBox="0 0 94.16 94.55"><defs><style>.cls-1,.cls-3{fill:none;stroke:#ffcc00;}.cls-1{stroke-linejoin:round;stroke-width:2.43px;}.cls-2{fill:#ffcc00;}.cls-3{stroke-miterlimit:10;stroke-width:1.21px;}</style></defs><title>step-img3</title><path class="cls-1" d="M86.66,19.61V9.48a8.25,8.25,0,0,0-8.19-8.27H9.4a8.27,8.27,0,0,0,0,16.54H81.51A8.23,8.23,0,0,1,89.68,26V49.43m0,14.77V85.07a8.25,8.25,0,0,1-8.16,8.27H9.4a8.25,8.25,0,0,1-8.19-8.27V9.48"/><polygon class="cls-2" points="3.78 23.8 3.66 23.66 3.55 23.52 3.44 23.39 3.32 23.23 3.21 23.09 3.12 22.93 3 22.77 2.92 22.63 2.82 22.47 2.73 22.31 2.64 22.13 2.58 21.96 2.48 21.8 2.42 21.62 2.35 21.46 2.28 21.28 2.21 21.09 2.17 20.93 2.1 20.75 2.05 20.57 2.01 20.39 1.96 20.2 1.94 20.02 1.89 19.81 1.87 19.63 1.85 19.45 1.83 19.24 1.83 19.06 1.83 18.85 1.8 18.67 0.63 18.67 0.63 18.9 0.63 19.1 0.65 19.33 0.67 19.56 0.69 19.79 0.71 20 0.76 20.23 0.78 20.43 0.85 20.66 0.9 20.87 0.94 21.07 1.01 21.28 1.08 21.51 1.15 21.69 1.24 21.9 1.3 22.1 1.4 22.31 1.49 22.49 1.58 22.7 1.67 22.88 1.78 23.07 1.89 23.25 2.01 23.43 2.12 23.61 2.23 23.77 2.37 23.96 2.48 24.12 2.62 24.3 2.76 24.46 2.87 24.58 3.78 23.8"/><polygon class="cls-2" points="9.4 26.32 9.4 26.32 9.2 26.32 9.02 26.29 8.81 26.29 8.63 26.27 8.43 26.25 8.24 26.23 8.06 26.2 7.88 26.16 7.7 26.11 7.52 26.07 7.34 26.02 7.16 25.97 6.97 25.91 6.79 25.86 6.63 25.79 6.45 25.72 6.29 25.63 6.11 25.56 5.95 25.47 5.79 25.38 5.64 25.29 5.48 25.2 5.32 25.1 5.16 25.01 5.02 24.9 4.87 24.78 4.73 24.67 4.59 24.55 4.59 24.55 3.8 25.47 3.82 25.49 3.98 25.63 4.14 25.77 4.32 25.88 4.5 26 4.66 26.13 4.84 26.25 5.02 26.34 5.23 26.45 5.41 26.55 5.59 26.64 5.79 26.73 5.98 26.82 6.18 26.91 6.38 26.98 6.59 27.05 6.79 27.12 7 27.19 7.2 27.26 7.43 27.3 7.63 27.35 7.84 27.39 8.06 27.42 8.29 27.46 8.49 27.48 8.72 27.51 8.95 27.51 9.17 27.53 9.4 27.53 9.4 27.53 9.4 26.32"/><rect class="cls-2" x="9.4" y="26.32" width="0.36" height="1.21"/><rect class="cls-2" x="10.94" y="26.32" width="6.01" height="1.21"/><rect class="cls-2" x="18.15" y="26.32" width="6.01" height="1.21"/><rect class="cls-2" x="25.34" y="26.32" width="6.01" height="1.21"/><rect class="cls-2" x="32.55" y="26.32" width="6.01" height="1.21"/><rect class="cls-2" x="39.77" y="26.32" width="5.99" height="1.21"/><rect class="cls-2" x="46.95" y="26.32" width="6.01" height="1.21"/><rect class="cls-2" x="54.17" y="26.32" width="5.99" height="1.21"/><rect class="cls-2" x="61.35" y="26.32" width="6.01" height="1.21"/><rect class="cls-2" x="68.57" y="26.32" width="5.99" height="1.21"/><polygon class="cls-2" points="80.61 26.32 75.75 26.32 75.75 27.53 80.61 27.53 81.2 26.91 80.61 26.32"/><polygon class="cls-2" points="80.61 26.32 81.2 26.32 81.2 26.91 80.61 26.32 80.61 26.32"/><rect class="cls-2" x="79.99" y="26.91" width="1.2" height="1.19"/><rect class="cls-2" x="79.99" y="29.29" width="1.2" height="6.07"/><rect class="cls-2" x="79.99" y="36.58" width="1.2" height="6.07"/><rect class="cls-2" x="79.99" y="43.84" width="1.2" height="5.59"/><rect class="cls-2" x="79.99" y="64.2" width="1.2" height="6.07"/><rect class="cls-2" x="79.99" y="71.48" width="1.2" height="6.07"/><polygon class="cls-2" points="81.2 84.15 81.2 78.75 80 78.75 80 84.15 80.61 84.75 81.2 84.15"/><polygon class="cls-2" points="81.2 84.15 81.2 84.75 80.61 84.75 81.2 84.15 81.2 84.15"/><rect class="cls-2" x="79.93" y="83.53" width="0.68" height="1.21"/><rect class="cls-2" x="72.74" y="83.53" width="5.99" height="1.21"/><rect class="cls-2" x="65.53" y="83.53" width="6.01" height="1.21"/><rect class="cls-2" x="58.34" y="83.53" width="5.99" height="1.21"/><rect class="cls-2" x="51.13" y="83.53" width="6.01" height="1.21"/><rect class="cls-2" x="43.94" y="83.53" width="5.99" height="1.21"/><rect class="cls-2" x="36.73" y="83.53" width="6.01" height="1.21"/><rect class="cls-2" x="29.54" y="83.53" width="5.99" height="1.21"/><rect class="cls-2" x="22.33" y="83.53" width="6.01" height="1.21"/><rect class="cls-2" x="15.14" y="83.53" width="5.99" height="1.21"/><polygon class="cls-2" points="9.4 84.75 13.94 84.75 13.94 83.53 9.4 83.53 9.4 84.75 9.4 84.75"/><polygon class="cls-2" points="7.84 84.61 7.84 84.61 8.06 84.65 8.29 84.68 8.49 84.7 8.72 84.72 8.95 84.75 9.17 84.75 9.4 84.75 9.4 83.53 9.2 83.53 9.02 83.53 8.81 83.51 8.63 83.51 8.43 83.49 8.24 83.46 8.06 83.42 8.04 83.42 7.84 84.61"/><polygon class="cls-2" points="1.74 80.23 1.78 80.3 1.89 80.49 2.01 80.65 2.12 80.83 2.23 81.01 2.37 81.17 2.48 81.36 2.62 81.52 2.76 81.68 2.89 81.84 3.05 82 3.19 82.16 3.35 82.3 3.5 82.43 3.66 82.59 3.82 82.73 3.98 82.84 4.14 82.98 4.32 83.12 4.5 83.23 4.66 83.35 4.84 83.46 5.02 83.58 5.23 83.67 5.41 83.78 5.59 83.88 5.79 83.97 5.98 84.06 6.18 84.13 6.38 84.22 6.59 84.29 6.97 83.14 6.79 83.07 6.63 83 6.45 82.94 6.29 82.87 6.11 82.78 5.95 82.71 5.79 82.62 5.64 82.52 5.48 82.43 5.32 82.34 5.16 82.23 5.02 82.14 4.87 82.02 4.73 81.91 4.59 81.79 4.43 81.68 4.3 81.54 4.16 81.42 4.05 81.29 3.91 81.15 3.8 81.04 3.66 80.9 3.55 80.74 3.44 80.6 3.32 80.46 3.21 80.3 3.12 80.17 3 80 2.92 79.84 2.82 79.68 2.78 79.62 1.74 80.23"/><polygon class="cls-2" points="0.63 75.88 0.63 76.11 0.63 76.34 0.65 76.57 0.67 76.8 0.69 77 0.71 77.23 0.76 77.44 0.78 77.67 0.85 77.88 0.9 78.1 0.94 78.31 1.01 78.52 1.08 78.72 1.15 78.93 1.19 79.04 2.3 78.61 2.28 78.52 2.21 78.33 2.17 78.15 2.1 77.97 2.05 77.78 2.01 77.6 1.96 77.42 1.94 77.23 1.89 77.05 1.87 76.87 1.85 76.66 1.83 76.48 1.83 76.27 1.83 76.09 1.8 75.88 0.63 75.88"/><path class="cls-1" d="M66.84,49.43h26.1V64.2H66.75a7.39,7.39,0,0,1,0-14.77h0.07Z"/><path class="cls-3" d="M66.77,60.44a3.62,3.62,0,1,0-3.58-3.62,3.61,3.61,0,0,0,3.58,3.62h0Z"/></svg>