<svg id="Слой_1" data-name="Слой 1" xmlns="http://www.w3.org/2000/svg" width="144" height="108" viewBox="0 0 143.93 108.66"><defs><style>.cls-1,.cls-2,.cls-3{fill:none;stroke:#fc0;}.cls-1,.cls-2{stroke-linejoin:round;}.cls-1{stroke-width:1.21px;}.cls-2{stroke-width:2.4px;}.cls-3{stroke-miterlimit:10;stroke-width:0.46px;}</style></defs><title>step-img4</title><polyline class="cls-1" points="137.4 54.89 94.72 54.89 94.72 28.8 121.57 28.8"/><path class="cls-2" d="M87.47,17.08h30l25.29,31.4v42H130.55m-80.87,0H84.31V1.2H1.2V90.44h9.18m80.87,0H87.47M30,107.46a17,17,0,1,0-16.85-17,16.92,16.92,0,0,0,16.85,17h0Zm80.87,0A17,17,0,1,0,94,90.44a16.92,16.92,0,0,0,16.85,17h0Z"/><path class="cls-3" d="M138.08,50.9l-1.63,1.63m0.68-5.25-5.19,5.25m3.17-7.74-7.69,7.74m5.67-10.26L122.91,52.53m8.14-12.78L118.42,52.53M129,37.25L113.91,52.53M127,34.73L109.4,52.53M125,32.21L104.88,52.53m16.64-21.37L100.37,52.53M117,31.16L97,51.41M112.5,31.16L97,46.87m11-15.71L97,42.32m6.53-11.15L97,37.76m2-6.6-2,2"/></svg>