<svg width="85" height="184" viewBox="0 0 85 184" xmlns="http://www.w3.org/2000/svg">
    <title>
        ar1
    </title>
    <g fill="#FFF" fill-rule="evenodd">
        <path d="M64.7 7.6L84.2 0 81 20.9 80.1 8c-.1-1.4-1.3-2.5-2.8-2.2L64.7 7.6z"/>
        <path fill-opacity=".04" opacity=".4" d="M1.3 180.3l-.1.5-.2.9-.2.9 2.2.5.2-.9.2-.9.1-.5z"/>
        <path fill-opacity=".08" opacity=".4" d="M2.2 175.9l-.1.5-.2.9-.2.8 2.2.5.2-.8.2-.9.1-.5z"/>
        <path fill-opacity=".16" opacity=".4" d="M3.2 171.4l-.1.6-.2.9-.2.8 2.2.5.2-.8.2-.9.1-.6z"/>
        <path fill-opacity=".2" opacity=".4" d="M4.2 167l-.1.6-.2.9-.2.7 2.2.5.2-.7.2-.9.2-.6z"/>
        <path fill-opacity=".24" opacity=".4" d="M5.3 162.6l-.2.7-.2.9-.2.6 2.2.5.2-.7.2-.8.2-.7z"/>
        <path fill-opacity=".28" opacity=".4" d="M6.4 158.2l-.2.8-.2.8-.2.5 2.2.6.1-.6.2-.8.2-.8z"/>
        <path fill-opacity=".32" opacity=".4" d="M7.6 153.8l-.2.9-.2.8-.2.5 2.2.6.1-.4.2-.9.2-.9z"/>
        <path fill-opacity=".36" opacity=".4" d="M8.8 149.4v.2l-.2.8-.2.9-.1.3 2.2.6.1-.3.2-.8.2-.8v-.2z"/>
        <path fill-opacity=".4" opacity=".4" d="M10 145l-.1.3-.2.8-.3.9-.1.2 2.2.6v-.2l.2-.8.2-.8.1-.3z"/>
        <path fill-opacity=".44" opacity=".4" d="M11.3 140.6l-.2.5-.2.8-.2.8 2.2.7.2-.8.2-.8.2-.5z"/>
        <path fill-opacity=".48" opacity=".4" d="M12.6 136.3l-.2.7-.2.8-.2.7 2.2.7.2-.6.2-.8.2-.7z"/>
        <path fill-opacity=".52" opacity=".4" d="M14 131.9l-.3.9-.3.8-.1.4 2.1.7.2-.4.2-.8.3-.8v-.1z"/>
        <path fill-opacity=".56" opacity=".4" d="M15.4 127.6l-.1.3-.3.8-.2.8-.1.2 2.2.7.1-.2.3-.8.2-.8.1-.3z"/>
        <path fill-opacity=".6" opacity=".4" d="M16.9 123.3l-.2.5-.3.8-.3.8 2.1.7.2-.8.3-.8.3-.5z"/>
        <path fill-opacity=".64" opacity=".4" d="M18.4 119l-.3.8-.3.8-.2.5 2.1.8.2-.5.3-.8.3-.8v-.1z"/>
        <path fill-opacity=".68" opacity=".4" d="M19.9 114.7l-.1.4-.3.8-.3.8-.1.2 2.1.8.1-.2.3-.8.3-.8.1-.4z"/>
        <path fill-opacity=".72" opacity=".4" d="M21.5 110.4l-.2.7-.3.8-.2.7 2.1.8.2-.7.3-.8.2-.7z"/>
        <path fill-opacity=".76" opacity=".4" d="M23.1 106.2l-.1.3-.3.8-.3.8-.1.3 2.1.8.1-.3.3-.8.3-.8.1-.3z"/>
        <path fill-opacity=".8" opacity=".4" d="M24.8 101.9l-.2.7-.3.8-.3.7 2.1.8.2-.7.3-.8.2-.7z"/>
        <path fill-opacity=".84" opacity=".4" d="M26.5 97.7l-.1.3-.3.8-.3.8-.1.3 2.1.9.1-.3.3-.7.3-.8.1-.3z"/>
        <path fill-opacity=".88" opacity=".4" d="M28.3 93.5l-.3.8-.3.8-.2.5 2.1.9.2-.6.3-.7.3-.8z"/>
        <path fill-opacity=".92" opacity=".4" d="M30 89.4l-.2.5-.3.7-.3.8v.1l2.1.9v-.1l.3-.7.3-.7.2-.5z"/>
        <path fill-opacity=".96" opacity=".4" d="M31.9 85.2l-.1.3-.3.7-.3.7-.1.3 2.1.9.1-.3.3-.7.3-.7.1-.3z"/>
        <path opacity=".4" d="M33.7 81l-.1.2-.3.7-.3.7-.2.5 2 .9.2-.5.3-.7.3-.7.1-.1z"/>
        <path opacity=".4" d="M35.6 76.9l-.3.7-.3.8-.3.6 2 1 .3-.6.3-.7.3-.7z"/>
        <path opacity=".4" d="M37.6 72.8l-.3.7-.3.7-.3.7 2 1 .3-.7.3-.7.3-.7z"/>
        <path opacity=".4" d="M39.6 68.7l-.3.6-.4.7-.3.7 2 1 .3-.7.3-.7.3-.6z"/>
        <path opacity=".4" d="M41.6 64.6l-.3.7-.4.7-.3.7 2 1 .3-.7.3-.7.3-.7z"/>
        <path opacity=".4" d="M43.7 60.6l-.4.7-.3.7-.3.6 2 1 .3-.6.3-.6.3-.6.1-.1z"/>
        <path opacity=".4" d="M45.8 56.6l-.1.2-.3.6-.4.7-.2.5 2 1.1.2-.5.3-.6.3-.6.1-.2z"/>
        <path opacity=".4" d="M47.9 52.6l-.2.4-.3.6-.4.7-.2.3 2 1.1.2-.3.3-.6.3-.6.2-.4z"/>
        <path opacity=".4" d="M50.1 48.6l-.4.7-.3.6-.3.6v.1l2 1.1.3-.6.3-.6.3-.6v-.1z"/>
        <path opacity=".4" d="M52.4 44.6l-.3.4-.3.6-.3.6-.2.4 2 1.1.2-.4.3-.6.3-.6.2-.4z"/>
        <path opacity=".4" d="M54.7 40.7l-.1.2-.3.6-.3.6-.3.6 1.9 1.1.3-.6.3-.6.3-.6.1-.2z"/>
        <path opacity=".4" d="M57 36.8l-.4.7-.3.5-.3.5-.1.2 1.9 1.2.1-.1.4-.6.3-.6.3-.5V38z"/>
        <path opacity=".4" d="M59.4 32.9l-.4.7-.3.5-.3.5-.1.2 1.9 1.2.1-.2.3-.5.3-.5.3-.5.1-.1z"/>
        <path opacity=".4" d="M61.8 29.1l-.1.1-.3.5-.4.6-.3.5-.1.2 1.9 1.2.1-.2.3-.5.3-.5.3-.5.1-.1z"/>
        <path opacity=".4" d="M64.3 25.3l-.2.3-.3.5-.3.5-.3.5v.1l1.9 1.2.3-.5.3-.5.3-.5.2-.3z"/>
        <path opacity=".4" d="M66.8 21.5l-.4.5-.3.5-.3.5-.2.3 1.9 1.3.2-.3.3-.5.3-.5.3-.5z"/>
        <path opacity=".4" d="M69.4 17.8l-.3.4-.3.5-.3.5-.3.5L70 21l.3-.5.3-.5.3-.5.3-.4z"/>
        <path opacity=".4" d="M72.1 14.1l-.3.4-.3.4-.3.5-.3.5-.1.1 1.8 1.3.1-.1.3-.5.3-.5.3-.4.3-.4z"/>
        <path opacity=".4" d="M74.8 10.4l-.4.5-.3.4-.3.4-.3.4 1.8 1.4.3-.4.3-.4.3-.4.3-.4.1-.1z"/>
    </g>
</svg>
