<svg id="Слой_1" xmlns="http://www.w3.org/2000/svg" viewBox="0 0 64.2 29.8">
    <style>
        .st0,.st1{fill:#fefefe}.st1{opacity:.4;enable-background:new}
    </style>
    <path class="st0" d="M44.4 0l19.8 7-15.8 13.8L56 10.4c.9-1.2.5-2.7-.7-3.5L44.4 0z"/>
    <path class="st1" d="M2 26.8l-.2.1-.2.1h-.1l-.2.1-.2.1-.2.1-.2.1-.2.1-.2.1-.2.1H0l1 2 .2-.1.2-.1.2-.1.2-.1.2-.1.2-.1.2-.1.2-.1.1.1.2-.1.1-.1-1-2zM48.5 9.1H48.2l-.2.2h-.2l-.2.1h-.4l-.2.2h-.2l-.2.1H46.3l.6 2.2h.5l.2-.1h.4l.2-.1h.2l.2-.1h.5l-.6-2.5zm-4.3 1.3l-.2.1-.2.1h-.2l-.2.1h-.2l-.2.1h-.2l-.2.1h-.2l-.2.1H42l.7 2.2h.2l.2-.1h.2l.2-.1h.2l.2-.1h.2l.2-.1h.2l.2-.1H45l-.8-2.3zm-4.4 1.3l-.2.1h-.2l-.2.1-.2.1H38.7l-.2.1h-.2l-.2.1-.2.1-.2.1.7 2.2.2-.1h.2l.2-.1.2-.1h.2l.2-.1.2-.1h.2l.2-.1.2-.1h.2l-.8-2.2zm-4.3 1.4H35.2l-.2.1-.2.1-.2.1-.2.1h-.2l-.2.1-.2.1-.2.1-.2.1h-.1l.7 2.2h.1l.2-.1.2-.1.2-.1.2-.1h.2l.2-.1.2-.1.2-.1h.2l.2-.1h.1l-.7-2.2zm-4.2 1.4l-.3.1-.2.1-.2.1-.2.1-.2.1h-.4l-.2.1-.2.1-.2.1-.2.1.7 2.1h.2l.2-.1.2-.1.2-.1.2-.1.3-.1.2-.1.2-.1.2-.1.2-.1.2-.1-.7-2zM27 16.1l-.2.1-.2.1-.2.1-.2.1-.2-.1-.2.1-.2.1-.2.1-.2.1-.2.1-.2.1.8 2.1.2-.1.2-.1.2-.1.2-.1.2-.1.2-.1.2-.1.2-.1.2-.1.2-.1.2-.1-.8-1.9zm-4.3 1.6h-.1l-.2.1-.2.1-.1.1h-.2l-.2.1-.2.1-.2.1-.2.1-.2.1-.2.1h-.1l.8 2.1h.1l.2-.1.2-.1.2-.1.2-.1.2-.1.2-.1.2-.1.2-.1.2-.1.2-.1h.1l-.9-2zm-4.1 1.7l-.3.1-.2.1-.2.1-.2.1-.2.1-.2.1-.2.1-.1-.1-.2.1-.2.1-.1.1.9 2.1h.1l.2-.1.2-.1.1-.2.2-.1.2-.1.2-.1.2-.1.2-.1.2-.1.2-.1h.1l-.9-1.9zm-4.2 1.7l-.2.1-.2.1-.2.1-.2.1-.2.1-.2.1H13l-.2.1-.2.1-.2.1h-.1l.9 2.1.2-.1.2-.1.2-.1.2-.1.2-.1.2-.1.2-.1.2-.1.2-.1.2-.1.2-.1-1-1.9zm-4.2 1.8l-.2.1-.2.1-.2.1-.2.1-.2.1-.2.1-.2.1-.2.1-.2.1-.2.1-.2.1.9 2.1.2-.1.2-.1.2-.1.2-.1.2-.1.2-.1.2-.1.2-.1.2-.1.2-.1.2-.1-.9-2.1zm-4.1 1.9l-.2.1-.1.1-.2.1-.2.1-.2.1H5l-.2.1-.2.1-.2.1-.2.1-.2.1 1 2.1.2-.1.2-.1.2-.1.2-.1.2-.1.2-.1.2-.1.2-.1.1-.1.2-.1.2-.1-1-2z"/>
</svg>
