<svg id="Слой_1" xmlns="http://www.w3.org/2000/svg" viewBox="0 0 233.5 65">
    <style>
        .st0,.st1{fill:#fefefe}.st1{opacity:.4;enable-background:new}
    </style>
    <path class="st0" d="M222.8 46.5l10.7 18.3-21 .3 12.5-3c1.4-.3 2.2-1.7 1.7-3.1l-3.9-12.5z"/>
    <path class="st1" d="M2.2 2.2h-.5l-.9.2-.8.1.4 2.2.8-.1.8-.2.5-.1-.3-2.1zm220.6 55.1l-.8-.3-.9-.3-.4-.2-.8 2.1.4.2.9.3.8.3.8-2.1zm-4.1-1.6l-.9-.4-.9-.3-.3-.1-.8 2.1.3.1.9.3.9.3h.1l.7-2zm-4.2-1.7l-.2-.1-.9-.3-.9-.3-.2-.1-.8 2.1.2.1.9.3.9.3.2.1.8-2.1zm-4.2-1.7l-.3-.1-.9-.3-.9-.4-.8 2.1.9.3.9.3.3.1.8-2zm-4.2-1.7l-.5-.2-.9-.3-.7-.3-.8 2.1.7.3.9.4.5.2.8-2.2zm-4.2-1.7l-.7-.3-.9-.3-.5-.2-.8 2.1.5.2.9.3.7.3.8-2.1zm-4.1-1.7l-.9-.3-.9-.4-.4-.1-.8 2.1.3.1.9.4.9.3.9-2.1zm-4.2-1.7l-.2-.1-.9-.3-.9-.4h-.2l-.8 2.1h.1l.9.4.9.3.2.1.9-2.1zm-4.2-1.7l-.4-.2-.9-.3-.8-.3-.8 2.1.8.3.9.3.4.2.8-2.1zm-4.2-1.7l-.6-.3-.9-.3-.6-.3-.8 2.1.6.3.9.3.6.3.8-2.1zm-4.1-1.7l-.8-.3-.9-.3-.4-.2-.8 2.1.4.2.9.3.8.3.8-2.1zm-4.2-1.7l-.2-.1-.9-.4-.8-.2-.1-.1-.9 2.1.1.1.9.3.9.4.2.1.8-2.2zm-4.2-1.7l-.4-.2-.9-.4-.8-.3-.8 2.1.8.3.9.3.4.2.8-2zm-4.2-1.6l-.7-.3-.9-.4-.5-.2-.8 2.1.6.2.9.4.7.3.7-2.1zm-4.2-1.7l-.9-.3-.9-.4-.3-.1-.8 2.1.3.1.9.3.9.3.8-2zm-4.2-1.7l-.2-.1-.9-.4-.9-.3h-.1l-.8 2.1h.1l.9.3.9.3.2.1.8-2zm-4.1-1.6l-.5-.2-.9-.3-.7-.3-.8 2.1.7.3.9.3.5.2.8-2.1zm-4.2-1.6l-.7-.3-.9-.3-.5-.2-.8 2.1.5.2.9.3.7.3.8-2.1zm-4.3-1.6l-1-.4-.9-.3-.3-.1-.8 2.1.3.1.9.3.9.3.9-2zm-4.2-1.6l-.3-.1-.9-.3-.9-.3h-.1l-.8 2.1h.1l.9.3.9.3.3.1.8-2.1zm-4.2-1.6l-.5-.2-.9-.3-.7-.3-.8 2.2.7.3.9.3.5.2.8-2.2zm-4.3-1.5l-.7-.3-.9-.3-.5-.2-.7 2.1.5.2.9.3.7.3.7-2.1zm-4.2-1.5l-.9-.3-.9-.3-.3-.1-.7 2.2.3.1.9.3.9.3.7-2.2zm-4.3-1.5l-.2-.1-.9-.3-.9-.3h-.1l-.7 2.2h.1l.9.3.9.3.2.1.7-2.2zM122 18l-.4-.1-.9-.3-.8-.3-.7 2.2.8.3.9.3.4.1.7-2.2zm-4.2-1.4l-.6-.2-.9-.3-.7-.2-.7 2.2.7.2.9.3.6.2.7-2.2zm-4.3-1.4l-.7-.2-.9-.3-.5-.2-.7 2.2.5.2.9.3.7.2.7-2.2zm-4.3-1.3l-.9-.3-.9-.3-.4-.1-.7 2.2.4.1.9.3.9.3.7-2.2zm-4.4-1.3h-.1l-.9-.3-.9-.3-.2-.1-.6 2.2.2.1.9.3.9.3h.1l.6-2.2zm-4.3-1.3l-.2-.1-.9-.2-.9-.2h-.2l-.6 2.2h.1l.9.3.9.3.2.1.7-2.4zm-4.3-1.2l-.4-.1-.9-.3-.9-.2h-.1l-.6 2.2.9.2.9.2.4.1.7-2.1zm-4.4-1.2l-.4-.1-.9-.2-.9-.2-.5 2.2.9.2.9.2.4.1.5-2.2zm-4.4-1.1l-.5-.1-.9-.2-.8-.2-.5 2.2.8.2.9.2.5.1.5-2.2zm-4.4-1l-.5-.1-.9-.2-.8-.2-.5 2.2.8.2.9.2.5.1.5-2.2zm-4.4-1l-.6-.1-.9-.2-.8-.2-.5 2.2.8.2.9.2.6.1.5-2.2zm-4.4-.9l-.6-.1-.9-.2-.7-.2-.4 2.2.8.2.8.2.5.1.5-2.2zM69.8 4l-.5-.1-.9-.2-.8-.1-.4 2.2.7.2.9.2.5.1.5-2.3zm-4.5-.8l-.5-.1-.9-.1-.8-.1-.4 2.2.9.1.9.1.5.1.3-2.2zm-4.5-.7l-.4-.1-.9-.1-.9-.1h-.1l-.3 2.2.9.1.9.1.4.1.4-2.2zm-4.4-.6H56l-.9-.1-.9-.1h-.1L53.8 4h1.1l.9.1h.3l.3-2.2zm-4.5-.6h-.2l-.9-.1-.9-.1h-.3l-.2 2.3h.2l.9.1.9.1h.2l.3-2.3zM47.4.9h-.1l-.9-.1-.9-.1h-.4L44.9 3h1.3l.9.1h.1l.2-2.2zM42.9.5L42 .4h-1.4l-.1 2.3h1.4l.8.1.2-2.3zM38.3.2H36v2.2h2.3V.2zM33.8.1h-2.3v2.3h2.2l.1-2.3zM29.3 0H27v2.3h2.3V0zm-4.5 0h-2.3l.1 2.3H24.9L24.8 0zm-4.5.2h-.7l-.8.1h-.7l.2 2.3h.7l.9-.1h.7L20.3.2zm-4.6.3h-.5l-.9.1-.9.1h-.1l.4 2.3h.1l.8-.1.8-.1h.5L15.7.5zm-4.5.4H11l-.9.1-.8.1-.3.1.3 2.2h.3l.8-.1.8-.1h.2L11.2.9zm-4.5.6l-.8.1-.8.1-.6.1.3 2.2.6-.1.8-.1.8-.1-.3-2.2z"/>
</svg>
