<svg id="Слой_1" xmlns="http://www.w3.org/2000/svg" viewBox="0 0 108 60.2">
    <style>
        .st0,.st1{fill:#fefefe}.st1{opacity:.4;enable-background:new}
    </style>
    <path class="st0" d="M108 21.1L106 0 88.9 12.3l11.8-5c1.3-.6 2.8.1 3.2 1.5l4.1 12.3z"/>
    <path class="st1" d="M2.6 56.2h-.2l-.5-.1-.6-.1H.8l-.5-.1-.3 2.2.5.1.5.1.5.1h.7l.4-2.2zm97.2-44.3l-.1.2-.2.5-.2.5-.3.5-.2.3 2 1 .2-.3.2-.5.2-.5.2-.5.1-.2-1.9-1zm-2 4l-.3.6-.3.5-.2.4-.2.5 2 1.1.2-.5.3-.5.2-.5.3-.5v-.1l-2-1zm-2.2 3.9l-.2.3-.3.5-.3.4-.3.4-.1.2 1.9 1.2.1-.2.3-.5.3-.4.3-.5.2-.4-1.9-1zm-2.3 3.8l-.3.5-.3.4-.3.4-.3.4-.1.2 1.8 1.3.1-.2.3-.4.3-.4.3-.4.3-.4-1.8-1.4zm-2.6 3.7l-.3.5-.3.4-.3.4-.3.4-.1.1 1.8 1.4.1-.2.3-.4.3-.4.3-.4.3-.4v-.1l-1.8-1.3zm-2.8 3.5l-.3.4-.3.4-.3.3-.3.4-.2.3 1.7 1.5.2-.3.3-.4.3-.4.3-.4.3-.4-1.7-1.4zM85 34.2l-.2.2-.3.3-.3.3-.3.3-.3.3-.1.1 1.6 1.6.1-.1.3-.3.3-.3.3-.3.3-.4.2-.2-1.6-1.5zm-3.1 3.1l-.3.3-.4.4-.3.3-.3.3-.3.3 1.5 1.7.3-.3.4-.3.3-.3.3-.3.3-.3-1.5-1.8zm-3.3 3l-.4.3-.3.3-.3.3-.3.3-.3.3 1.4 1.8.3-.3.4-.3.4-.3.3-.3.4-.3-1.6-1.8zm-3.5 2.8l-.4.3-.4.3-.3.2-.4.3-.4.2 1.3 1.9.4-.3.4-.3.4-.3.4-.3.4-.3-1.4-1.7zm-3.7 2.5l-.3.2-.4.2-.4.2-.3.3-.4.2h-.1l1.1 2h.1l.4-.2.4-.2.4-.3.4-.2.3-.2-1.2-2zm-3.8 2.3l-.3.2-.3.2-.4.2-.4.2-.4.2-.2.1 1 2 .2-.1.4-.2.4-.2.4-.2.4-.2.3-.2-1.1-2zm-3.9 2l-.2.1-.4.2-.4.2-.4.2-.3.1-.3.1.9 2.1.3-.1.4-.2.4-.2.4-.2.4-.2.2-.1-1-2zm-4.1 1.8l-.4.2-.4.2-.4.2-.4.1-.4.1.8 2.1.4-.2.4-.2.4-.2h.4l.4-.2-.8-2.1zm-4.1 1.6l-.3.1-.4.1-.4.1-.4.1-.4.1h-.1l.7 2.2h.1l.4-.1.4-.1.4-.1.4-.1.3-.1-.7-2.2zm-4.3 1.3H51l-.4.1-.4.1-.5.2-.4.1-.2.1.5 2.2h.2l.4-.1.4-.1.4-.1.4-.1.2-.1-.4-2.3zm-4.3 1.1h-.2l-.4.1-.4.1-.5.1H45l-.3.1.4 2.2h.3l.5-.1.4-.1.5-.1.4-.1h.2l-.5-2.2zm-4.4.8h-.1l-.4.1-.4.1-.5.1-.4.1h-.3l.3 2.3h.3l.4-.1.5-.1.5-.1.5-.1h.1l-.5-2.3zm-4.4.6h-.6l-.4.1h-1.3l.2 2.3h.3l.5-.1h1.6l-.3-2.3zm-4.4.5H31.3l.1 2.3H33.8l-.1-2.3zm-4.4.3h-2.4v2.3h2.4v-2.3zm-4.5 0h-2.3v2.3h2.4l-.1-2.3zm-4.4 0H18.1l-.1 2.2H20.3l.1-2.2zm-4.5-.2h-2.3l-.2 2.3h2.3l.2-2.3zm-4.4-.4H9.2l-.2 2h.4l.5.1h1.4l.2-2.1zM7 56.8h-.3l-.5-.1h-.5l-.5-.1-.5-.1-.3 2.3h.5l.5.1.5.1h.8l.3-2.2z"/>
</svg>
