<svg id="Слой_1" xmlns="http://www.w3.org/2000/svg" viewBox="0 0 120.4 37.6">
    <style>
        .st0,.st1{fill:#fefefe}.st1{opacity:.4;enable-background:new}
    </style>
    <path class="st0" d="M115.2 20.5L120.4 0l-20.2 5.7L113 5c1.4-.1 2.6 1.1 2.5 2.5l-.3 13z"/>
    <path class="st1" d="M1.8 34.4l-.2.2-.3.2-.3.2-.3.2-.2.2-.3.3-.2.2 1.5 1.6.2-.2.3-.2.2-.2.2-.2.2-.2.4-.2.2-.2-1.4-1.7zM109.3 7.9l-.1.1-.2.2-.2.2-.2.2-.2.2-.1.2-.2.2-.1.1h-.1l1.5 1.7.1-.1.2-.2.2-.2.2-.2.2-.2.2-.2.2-.2.2-.2.1-.1-1.7-1.5zm-3.1 2.8l-.3.2-.2.2-.2.2-.3.2-.2.2-.3.2-.2.1 1.1 2 .2-.1.3-.2.3-.2.3-.2.3-.2.3-.2.2-.2-1.3-2zm-3.7 2.2l-.2.1-.3.1-.3.2-.3.1-.3.1-.3.1-.2.1.8 2.1.3-.1.4-.2.3-.1.3-.2.3-.1.3-.2.2-.1-1-1.9zm-4 1.6h-.1l-.4.2-.4.1-.3.2-.4.1-.4.1h-.1l.6 2.2h.2l.4-.1.4-.1.4-.1.4-.1.4-.1h.1l-.8-2.4zm-4.3 1.3l-.4.2-.4.1-.4.1-.4.1-.4.1.5 2.2h.1l.4-.1.4-.1.4-.1.4-.1.4-.1-.6-2.3zm-4.3 1.1l-.3.1-.5.1-.4.1-.5.1-.5.1.4 2.2h.1l.5-.1.5-.1.4-.1.5-.1.4-.1-.6-2.2zm-4.4.9l-.5.1-.5.1h-.4l-.5.1h-.3l.4 2.2h.3l.5-.1.5-.1.5-.1.5-.1-.5-2.1zm-4.4.7l-.4.1-.5.1-.5.1-.5.1-.4.1.3 2.2.4-.1.5-.1.5-.1.5-.1h.4l-.3-2.3zm-4.4.6h-.4l-.5.1-.5.1-.5.1h-.3l.3 2.2h.3l.5-.1h.5l.5-.1.4-.1-.3-2.2zm-4.5.6l-.5.1-.5.1-.5.1h-.6l.2 2.2h.1l.5-.1.5-.1h.5l.5-.1-.2-2.2zm-4.4.5H67l-.5.1h-.8l.2 2.3h.9l.5-.1h.8l-.3-2.3zm-4.5.5l-.6.1-.5.1h-1l.2 2.3h.5l.5-.1h.5l.5-.1h.1l-.2-2.3zm-4.5.4h-.5l-.5.1h-.5l-.5.1h-.2l.2 2.3h.7l.5-.1h1l-.2-2.4zm-4.4.5h-1.3l-.5.1h-.3l.2 2.3h.3l.5-.1h.5l.5-.1h.3l-.2-2.2zm-4.5.4h-.2l-.5.1h-.5l-.5.1h-.4l.2 2.3h.4l.5-.1.5-.1h.7l-.2-2.3zm-4.5.5l-.6.1h-.5l-.5.1-.5.1h-.1l.3 2.3h.5l.5-.1.5-.1h.5l-.1-2.4zm-4.5.6h-.4l-.5.1-.5.1h-.8l.3 2.3h.3l.5-.1.5-.1.5-.1h.4l-.3-2.2zm-4.5.5h-.1l-.5.1-.5.1-.5.1-.6.1.3 2.2.5-.1.5-.1.5-.1.5-.1h.1l-.2-2.2zm-4.4.7h-.3l-.5.1-.5.1-.5.1-.4.1.4 2.2.4-.1.5-.1.5-.1.5-.1h.3l-.4-2.2zm-4.5.8l-.3.1-.5.1-.5.1-.5.1-.4.1.4 2.2.4-.1.5-.1.5-.1.5-.1h.3l-.4-2.3zM23 26h-.2l-.5.1-.5.1-.5.1-.3.1h-.1l.5 2.2h.1l.5-.1.5-.1.5-.1.5-.1h.2L23 26zm-4.4 1l-.4.1-.4.1-.5.1-.4.1-.4.1h-.1l.6 2.2.4-.1.4-.1.4-.1.4-.1.4-.1-.4-2.2zm-4.4 1.3l-.3.1-.4.1-.4.1-.4.1-.4.3h-.2l.8 2.1.2-.1.4-.1.4-.1.4-.1.4-.1.3-.1-.8-2.2zm-4.3 1.5l-.4.2-.4.2-.4.2-.4.2-.4.2-.2.1 1 2.1.3-.3.3-.2.4-.2.3-.2.4-.1.4-.2-.9-2zm-4.2 2l-.1.1-.3.2-.3.2-.3.2-.3.2-.4.2-.3.1 1.2 1.9.2-.1.3-.2.3-.2.3-.2.3-.2.3-.2.1-.1-1-1.9z"/>
</svg>
