<svg id="Слой_1" xmlns="http://www.w3.org/2000/svg" viewBox="0 0 35 124.9">
    <style>
        .st0,.st1{fill:#fefefe}.st1{opacity:.4;enable-background:new}
    </style>
    <path class="st0" d="M35 13.8L19 0l-3.9 20.8 5.1-11.9c.6-1.4 2.1-1.9 3.4-1.2L35 13.8z"/>
    <path class="st1" d="M1.3 121.7l-.1.2-.2.3-.2.3-.2.3-.2.3-.4.5 1.8 1.3.2-.3.2-.3.2-.3.2-.3.2-.3.1-.2-1.6-1.5zM22 12.9l.2.3.2.5.2.5.2.5.1.2L25 14l-.1-.2-.2-.5-.2-.5-.2-.5-.3-.4-2 1zm1.8 4.1l.2.4.2.5.2.5.2.5.1.2 2.1-.8-.2-.3-.2-.5-.2-.5-.2-.5-.2-.4-2 .9zm1.6 4.2l.1.3.2.5.2.5.1.5.1.3 2.1-.7-.1-.3-.1-.6-.2-.5-.2-.5-.1-.3-2.1.8zm1.4 4.2l.2.6.1.5.1.5.1.5v.1l2.2-.6v-.1l-.1-.5-.1-.5-.2-.5-.2-.5v-.1l-2.1.6zm1.1 4.4l.1.2.1.5.1.5.1.5.1.4 2.2-.5-.1-.4-.1-.5-.1-.5-.1-.5-.1-.3-2.2.6zm.9 4.3l.1.4.1.5.1.5.1.5.1.4 2.2-.3-.1-.4-.1-.5-.1-.5-.1-.5-.1-.4-2.2.3zm.7 4.4v.4l.1.5v1.4l2.2-.2v-.9l-.1-.5v-.9l-2.2.2zM30 43v2.3l2.2-.1v-2.3L30 43zm.1 4.5v2.2h2.3V47.4l-2.3.1zM30 52v2.4l2.2.2v-2.4L30 52zm-.3 4.4v1.1l-.1.5v.8l2.2.3v-.3l.1-.5v-1l.1-.5v-.1l-2.3-.3zm-.5 4.5v.3l-.1.5-.1.4-.1.5-.1.4v.1l2.2.4v-.1l.1-.5.1-.5.1-.5.1-.5v-.3l-2.2-.2zm-.8 4.4l-.1.4-.1.4-.1.5-.1.5-.1.4 2.2.5.1-.5.1-.5.1-.5.1-.5.1-.4-2.2-.3zm-1 4.4l-.1.5-.1.4-.1.5-.1.4-.1.3 2.2.6.1-.3.1-.4.1-.5.1-.5.1-.5v-.1l-2.2-.4zM26.2 74v.1l-.2.5-.1.4-.1.5-.1.4-.1.2 2.1.7.1-.3.1-.4.1-.5.1-.4.1-.5v-.2l-2-.5zm-1.4 4.3l-.1.2-.1.5-.2.4-.2.4-.2.4-.1.2 2.1.8.1-.2.2-.4.2-.4.2-.4.2-.4.1-.4-2.2-.7zm-1.5 4.2l-.1.3-.2.4-.2.4-.1.4-.2.4-.1.1 2.1.9.1-.1.2-.4.2-.4.2-.4.2-.4.1-.3-2.2-.9zm-1.7 4.2l-.1.3-.2.4-.2.4-.2.4-.2.4v.1l2 .9.1-.1.2-.4.2-.4.2-.4.2-.4.1-.3-2.1-.9zm-1.9 4.1l-.1.3-.2.4-.2.4-.2.4-.2.4v.1l2 1 .1-.1.2-.4.2-.4.2-.4.2-.4.1-.3-2.1-1zm-1.9 4l-.1.3-.2.4-.2.4-.3.4-.2.4v.1l2 1.1.1-.1.2-.4.2-.4.2-.4.2-.4.1-.3-2-1.1zm-2.1 4l-.1.3-.2.4-.2.4-.2.4-.2.4-.1.2 2 1.1.1-.2.2-.4.2-.4.2-.4.2-.4.1-.3-2-1.1zm-2.2 3.9l-.1.2-.2.4-.2.4-.2.4-.2.4-.1.3 1.9 1.2.1-.3.2-.4.2-.4.2-.4.2-.4.1-.2-1.9-1.2zm-2.3 3.9l-.3.5-.2.4-.2.4-.2.4-.2.3 1.9 1.2.2-.4.2-.4.2-.4.2-.4.2-.4v-.1l-1.8-1.1zm-2.4 3.9l-.2.3-.2.4-.2.3-.2.4-.2.4-.1.2 1.9 1.2.1-.2.2-.4.2-.4.2-.4.2-.4.2-.3-1.9-1.1zm-2.4 3.7l-.1.1-.2.3-.3.4-.2.4-.2.3-.2.3 1.9 1.3.2-.3.2-.4.2-.3.2-.4.2-.4.1-.1-1.8-1.2zM3.9 118l-.1.2-.2.3-.2.3-.4.4-.2.3-.2.3 1.8 1.3.2-.3.2-.3.2-.3.2-.3.2-.4.1-.2-1.6-1.3z"/>
</svg>
