<svg width="53" height="28" viewBox="0 0 53 28" xmlns="http://www.w3.org/2000/svg">
    <title>
        CC9DCCE5-B7A2-470D-82FD-AB0F9CC6A871
    </title>
    <g fill="#fc0">
        <path d="M26.12 12.378c-.203 2.333-2.317 4.107-4.65 3.903-1.685-.146-3.15-1.32-3.673-2.802-.338.885-.688 1.9-.79 3.066-.476 5.443 3.556 10.105 8.87 10.57 5.443.477 10.106-3.556 10.57-8.87.477-5.443-3.555-10.106-8.87-10.57-1.425-.125-2.744.02-3.956.437 1.64.667 2.67 2.324 2.5 4.268z"/>
        <path d="M26.367 0C15.657 0 5.71 4.99.354 13.05c-.637.896-.382 2.176.51 2.687.893.64 2.168.384 2.678-.51 4.718-6.91 13.39-11.26 22.697-11.26 9.308 0 18.106 4.35 22.697 11.26.382.51 1.02.894 1.657.894.383 0 .765-.127 1.148-.383.892-.64 1.147-1.79.51-2.686C47.024 4.99 37.078 0 26.367 0z"/>
    </g>
</svg>
