<?xml version="1.0" encoding="utf-8"?>
<!-- Svg Vector Icons : http://www.onlinewebfonts.com/icon -->
<!DOCTYPE svg PUBLIC "-//W3C//DTD SVG 1.1//EN" "http://www.w3.org/Graphics/SVG/1.1/DTD/svg11.dtd">
<svg version="1.1" xmlns="http://www.w3.org/2000/svg" xmlns:xlink="http://www.w3.org/1999/xlink" x="0px" y="0px" viewBox="0 0 1000 1000" enable-background="new 0 0 1000 1000" xml:space="preserve">
<metadata> Svg Vector Icons : http://www.onlinewebfonts.com/icon </metadata>
<g><path d="M500,10C229.4,10,10,229.4,10,500c0,270.6,219.4,490,490,490s490-219.4,490-490C990,229.4,770.6,10,500,10z M500,964.2C243.6,964.2,35.8,756.4,35.8,500C35.8,243.6,243.6,35.8,500,35.8c256.4,0,464.2,207.8,464.2,464.2C964.2,756.4,756.4,964.2,500,964.2z"/><path d="M431.6,632.2L267.5,468.1l-18.2,18.2l164.1,164.1l18.2,18.2l18.2-18.2l300.9-300.9l-18.2-18.2L431.6,632.2z"/></g>
</svg>