<?xml version="1.0" encoding="UTF-8"?><!DOCTYPE svg PUBLIC "-//W3C//DTD SVG 1.1//EN" "http://www.w3.org/Graphics/SVG/1.1/DTD/svg11.dtd"><svg xmlns="http://www.w3.org/2000/svg"><symbol id="icon-fb" viewBox="27.4 -3.8 5.3 10.1">
    <path d="M30.8 6.4V1.7h1.5l.2-1.8h-1.8v-1.1c0-.5.1-.9.9-.9h1v-1.6c-.2 0-.7-.1-1.4-.1-1.4 0-2.3.8-2.3 2.4v1.3h-1.6v1.8h1.6v4.6h1.9z"/>
</symbol><symbol id="icon-inst" viewBox="3.4 4.8 49.6 49.6">
    <path d="M43.4 4.8H13c-5.3 0-9.6 4.3-9.6 9.6v30.4c0 5.3 4.3 9.6 9.6 9.6h30.4c5.3 0 9.6-4.3 9.6-9.6V14.4c0-5.3-4.3-9.6-9.6-9.6zm2.8 5.7h1.1v8.4h-8.4v-8.4h7.3zm-25.1 14c1.6-2.2 4.2-3.6 7.1-3.6s5.5 1.4 7.1 3.6c1 1.4 1.7 3.2 1.7 5.1 0 4.8-3.9 8.7-8.7 8.7-4.8 0-8.7-3.9-8.7-8.7-.1-1.9.5-3.6 1.5-5.1zm27.1 20.3c0 2.6-2.1 4.8-4.8 4.8H13c-2.6 0-4.8-2.1-4.8-4.8V24.5h7.4c-.6 1.6-1 3.3-1 5.1 0 7.5 6.1 13.6 13.6 13.6s13.6-6.1 13.6-13.6c0-1.8-.4-3.5-1-5.1h7.4v20.3z"/>
</symbol><symbol id="icon-vk" viewBox="104 66 304 380">
    <path d="M386.8 268c-14.1-15.2-32.9-25.3-56.4-30.2v-2c16.3-6.8 29.1-17.4 38.4-31.9 9.3-14.5 13.9-31 13.9-49.5 0-16-3.4-30.1-10.1-42.4-6.7-12.2-16.9-22-30.5-29.3-12.6-6.8-26.1-11.3-40.4-13.4-14.4-2.1-35.5-3.2-63.4-3.2H104v380h152.1c26.4 0 48.1-2.4 65.2-7.2 17.1-4.8 32.8-12.8 47.1-24 12.1-9.4 21.7-21.2 28.8-35.5 7.1-14.3 10.7-30.9 10.7-49.8.1-25.8-7-46.4-21.1-61.6zM199 135.7h6.6c17 0 29.8.1 38.4.4 8.6.3 16 1.7 22.3 4.5 6.6 2.9 11.5 7.6 14.7 14 3.2 6.5 4.7 12.8 4.7 18.9 0 8.3-1.5 15.7-4.3 21.9-2.9 6.3-8.2 11.2-15.8 14.8-7 3.2-13.7 5-20.3 5.4-6.6.3-18 .5-34.3.5h-12v-80.4zm104.7 216.8c-4 7.2-10.3 12.7-19 16.5-9.9 4.3-19.6 6.6-29.1 6.9-9.5.3-26.7.5-51.5.5H199v-95.2h17.6c17 0 30.6.1 40.7.4 10.1.3 18.1 1.5 23.9 3.7 9.5 3.4 16.7 8.4 21.4 15.1 4.8 6.6 7.2 15.8 7.2 27.6-.1 9-2.1 17.2-6.1 24.5z"/>
</symbol></svg>