<svg id="Слой_1" data-name="Слой 1" xmlns="http://www.w3.org/2000/svg" width="33.22mm" height="33.35mm" viewBox="0 0 94.16 94.55">
    <defs>
        <style>
            .cls-1,.cls-3{fill:none;stroke:#fc0}.cls-1{stroke-linejoin:round;stroke-width:2.43px}.cls-2{fill:#fc0}.cls-3{stroke-miterlimit:10;stroke-width:1.21px}
        </style>
    </defs>
    <title>
        step-img3
    </title>
    <path class="cls-1" d="M86.66 19.61V9.48a8.25 8.25 0 0 0-8.19-8.27H9.4a8.27 8.27 0 0 0 0 16.54h72.11A8.23 8.23 0 0 1 89.68 26v23.43m0 14.77v20.87a8.25 8.25 0 0 1-8.16 8.27H9.4a8.25 8.25 0 0 1-8.19-8.27V9.48"/>
    <path class="cls-2" d="M3.78 23.8l-.12-.14-.11-.14-.11-.13-.12-.16-.11-.14-.09-.16-.12-.16-.08-.14-.1-.16-.09-.16-.09-.18-.06-.17-.1-.16-.06-.18-.07-.16-.07-.18-.07-.19-.04-.16-.07-.18-.05-.18-.04-.18-.05-.19-.02-.18-.05-.21-.02-.18-.02-.18-.02-.21v-.39l-.03-.18H.63V19.1l.02.23.02.23.02.23.02.21.05.23.02.2.07.23.05.21.04.2.07.21.07.23.07.18.09.21.06.2.1.21.09.18.09.21.09.18.11.19.11.18.12.18.11.18.11.16.14.19.11.16.14.18.14.16.11.12.91-.78z"/>
    <path class="cls-2" d="M9.4 26.32h-.2l-.18-.03h-.21l-.18-.02-.2-.02-.19-.02-.18-.03-.18-.04-.18-.05-.18-.04-.18-.05-.18-.05-.19-.06-.18-.05-.16-.07-.18-.07-.16-.09-.18-.07-.16-.09-.16-.09-.15-.09-.16-.09-.16-.1-.16-.09-.14-.11-.15-.12-.14-.11-.14-.12-.79.92.02.02.16.14.16.14.18.11.18.12.16.13.18.12.18.09.21.11.18.1.18.09.2.09.19.09.2.09.2.07.21.07.2.07.21.07.2.07.23.04.2.05.21.04.22.03.23.04.2.02.23.03h.23l.22.02h.23v-1.21z"/>
    <path class="cls-2" d="M9.4 26.32h.36v1.21H9.4z"/>
    <path class="cls-2" d="M10.94 26.32h6.01v1.21h-6.01z"/>
    <path class="cls-2" d="M18.15 26.32h6.01v1.21h-6.01z"/>
    <path class="cls-2" d="M25.34 26.32h6.01v1.21h-6.01z"/>
    <path class="cls-2" d="M32.55 26.32h6.01v1.21h-6.01z"/>
    <path class="cls-2" d="M39.77 26.32h5.99v1.21h-5.99z"/>
    <path class="cls-2" d="M46.95 26.32h6.01v1.21h-6.01z"/>
    <path class="cls-2" d="M54.17 26.32h5.99v1.21h-5.99z"/>
    <path class="cls-2" d="M61.35 26.32h6.01v1.21h-6.01z"/>
    <path class="cls-2" d="M68.57 26.32h5.99v1.21h-5.99z"/>
    <path class="cls-2" d="M80.61 26.32h-4.86v1.21h4.86l.59-.62-.59-.59z"/>
    <path class="cls-2" d="M80.61 26.32h.59v.59l-.59-.59z"/>
    <path class="cls-2" d="M79.99 26.91h1.2v1.19h-1.2z"/>
    <path class="cls-2" d="M79.99 29.29h1.2v6.07h-1.2z"/>
    <path class="cls-2" d="M79.99 36.58h1.2v6.07h-1.2z"/>
    <path class="cls-2" d="M79.99 43.84h1.2v5.59h-1.2z"/>
    <path class="cls-2" d="M79.99 64.2h1.2v6.07h-1.2z"/>
    <path class="cls-2" d="M79.99 71.48h1.2v6.07h-1.2z"/>
    <path class="cls-2" d="M81.2 84.15v-5.4H80v5.4l.61.6.59-.6z"/>
    <path class="cls-2" d="M81.2 84.15v.6h-.59l.59-.6z"/>
    <path class="cls-2" d="M79.93 83.53h.68v1.21h-.68z"/>
    <path class="cls-2" d="M72.74 83.53h5.99v1.21h-5.99z"/>
    <path class="cls-2" d="M65.53 83.53h6.01v1.21h-6.01z"/>
    <path class="cls-2" d="M58.34 83.53h5.99v1.21h-5.99z"/>
    <path class="cls-2" d="M51.13 83.53h6.01v1.21h-6.01z"/>
    <path class="cls-2" d="M43.94 83.53h5.99v1.21h-5.99z"/>
    <path class="cls-2" d="M36.73 83.53h6.01v1.21h-6.01z"/>
    <path class="cls-2" d="M29.54 83.53h5.99v1.21h-5.99z"/>
    <path class="cls-2" d="M22.33 83.53h6.01v1.21h-6.01z"/>
    <path class="cls-2" d="M15.14 83.53h5.99v1.21h-5.99z"/>
    <path class="cls-2" d="M9.4 84.75h4.54v-1.22H9.4v1.22z"/>
    <path class="cls-2" d="M7.84 84.61l.22.04.23.03.2.02.23.02.23.03h.45v-1.22h-.38l-.21-.02h-.18l-.2-.02-.19-.03-.18-.04h-.02l-.2 1.19z"/>
    <path class="cls-2" d="M1.74 80.23l.04.07.11.19.12.16.11.18.11.18.14.16.11.19.14.16.14.16.13.16.16.16.14.16.16.14.15.13.16.16.16.14.16.11.16.14.18.14.18.11.16.12.18.11.18.12.21.09.18.11.18.1.2.09.19.09.2.07.2.09.21.07.38-1.15-.18-.07-.16-.07-.18-.06-.16-.07-.18-.09-.16-.07-.16-.09-.15-.1-.16-.09-.16-.09-.16-.11-.14-.09-.15-.12-.14-.11-.14-.12-.16-.11-.13-.14-.14-.12-.11-.13-.14-.14-.11-.11-.14-.14-.11-.16-.11-.14-.12-.14-.11-.16-.09-.13L3 80l-.08-.16-.1-.16-.04-.06-1.04.61z"/>
    <path class="cls-2" d="M.63 75.88v.46l.02.23.02.23.02.2.02.23.05.21.02.23.07.21.05.22.04.21.07.21.07.2.07.21.04.11 1.11-.43-.02-.09-.07-.19-.04-.18-.07-.18-.05-.19-.04-.18-.05-.18-.02-.19-.05-.18-.02-.18-.02-.21-.02-.18v-.39l-.03-.21H.63z"/>
    <path class="cls-1" d="M66.84 49.43h26.1V64.2H66.75a7.39 7.39 0 0 1 0-14.77h.07z"/>
    <path class="cls-3" d="M66.77 60.44a3.62 3.62 0 1 0-3.58-3.62 3.61 3.61 0 0 0 3.58 3.62z"/>
</svg>
