<svg id="Слой_1" data-name="Слой 1" xmlns="http://www.w3.org/2000/svg" width="50.78mm" height="38.33mm" viewBox="0 0 143.93 108.66">
    <defs>
        <style>
            .cls-1,.cls-2,.cls-3{fill:none;stroke:#fc0}.cls-1,.cls-2{stroke-linejoin:round}.cls-1{stroke-width:1.21px}.cls-2{stroke-width:2.4px}.cls-3{stroke-miterlimit:10;stroke-width:.46px}
        </style>
    </defs>
    <title>
        step-img4
    </title>
    <path class="cls-1" d="M137.4 54.89H94.72V28.8h26.85"/>
    <path class="cls-2" d="M87.47 17.08h30l25.29 31.4v42h-12.21m-80.87 0h34.63V1.2H1.2v89.24h9.18m80.87 0h-3.78M30 107.46a17 17 0 1 0-16.85-17 16.92 16.92 0 0 0 16.85 17zm80.87 0A17 17 0 1 0 94 90.44a16.92 16.92 0 0 0 16.85 17z"/>
    <path class="cls-3" d="M138.08 50.9l-1.63 1.63m.68-5.25l-5.19 5.25m3.17-7.74l-7.69 7.74m5.67-10.26l-10.18 10.26m8.14-12.78l-12.63 12.78M129 37.25l-15.09 15.28M127 34.73l-17.6 17.8M125 32.21l-20.12 20.32m16.64-21.37l-21.15 21.37M117 31.16L97 51.41m15.5-20.25L97 46.87m11-15.71L97 42.32m6.53-11.15L97 37.76m2-6.6l-2 2"/>
</svg>
