<svg id="Режим_изоляции" data-name="Режим изоляции" xmlns="http://www.w3.org/2000/svg" width="78px" height="138px" viewBox="0 0 77.83 138.34"><defs><style>.cls-1,.cls-2{fill:none;stroke:#141515;stroke-miterlimit:10;}.cls-1{stroke-width:2.43px;}.cls-2{stroke-width:1.21px;}</style></defs><title>aluminum_water_bottle</title><path class="cls-1" d="M31.67,25.58l0.14,0.07-0.25,1.63c-0.82.23-1.27,0.48-1.27,0.76h0v2.84c3.77,7.72-.91,12.85-5.8,17.82a48.66,48.66,0,0,0-6,6.83,11.28,11.28,0,0,0-2.06,6.21v71.85c0,2,13.49,3.55,30.12,3.55s30.09-1.58,30.09-3.55V61.73c0-11.93-20.7-16.81-13.86-30.85V28a1.56,1.56,0,0,0-1.27-.92L58.29,6c-1-6.32-22.75-6.32-23.65,0l-1.29,8.86,0.88,1.72"></path><path class="cls-2" d="M62.76,28c0,1.05-7.28,1.92-16.24,1.92S30.29,29.09,30.29,28"></path><path class="cls-2" d="M61.58,27.46c0,1-6.76,1.79-15.06,1.79s-15.06-.8-15.06-1.79"></path><path class="cls-2" d="M62.76,30.87c0,1.08-7.28,1.92-16.24,1.92S30.29,32,30.29,30.87"></path><path class="cls-2" d="M41,8.25A7.89,7.89,0,0,1,46.52,6a8.06,8.06,0,1,1-7.94,9"></path><path class="cls-2" d="M25.12,13.4a14.69,14.69,0,0,1,3.2-5.45,13.61,13.61,0,0,1,5.83-4,7.16,7.16,0,0,1,2.11-.37M38,3.8a4.12,4.12,0,0,1,1.59.92c1.32,1.21,1.7,3.18,1.25,5.36a15.06,15.06,0,0,1-9.23,10.24c-2.11.66-4.08,0.46-5.4-.76a4.14,4.14,0,0,1-1.11-1.67m1.54-1.26a2.57,2.57,0,0,0,.79,1.56c0.82,0.76,2.13.85,3.63,0.37a13.24,13.24,0,0,0,8-8.84c0.34-1.56.14-2.89-.68-3.64a2.63,2.63,0,0,0-1.27-.6m-2.38.25a11.94,11.94,0,0,0-5,3.46,13,13,0,0,0-2.43,3.73"></path><path class="cls-2" d="M39,7.31a0.44,0.44,0,0,1-.18,0,1.86,1.86,0,1,1,1.84-1.86,2,2,0,0,1-.11.64"></path><path class="cls-2" d="M30.83,18.64a3.33,3.33,0,1,0-6.28,2.22,1.84,1.84,0,0,1-.57,2L7.18,37.08v0h0a7.3,7.3,0,0,0-.86.82,7.73,7.73,0,0,0-.75,1,8.32,8.32,0,0,0-1.16,6.16,8.11,8.11,0,0,0,3.36,5.09,2.45,2.45,0,0,1,.25.18A8.07,8.07,0,0,0,19,48a1.25,1.25,0,0,1,.14-0.18c0.18-.32.36-0.64,0.52-1a0.13,0.13,0,0,1,0-.07c0.14-.34.27-0.71,0.39-1.05h0l6.26-21.25A1.85,1.85,0,0,1,28,23.13,3.39,3.39,0,0,0,31,20.57m3.67-1.51a7.08,7.08,0,0,1-5.08,7.51L23.62,46.72h0a12.88,12.88,0,0,1-.57,1.56,0.12,0.12,0,0,0,0,.09,10.46,10.46,0,0,1-.86,1.53h0A11.75,11.75,0,0,1,14.73,55,11.63,11.63,0,0,1,5.91,53.3h0A11.74,11.74,0,0,1,.85,45.79a12,12,0,0,1,1.68-8.91,10.64,10.64,0,0,1,1.07-1.4,12.57,12.57,0,0,1,1.25-1.21h0l16-13.51A7,7,0,0,1,29.4,13a7.16,7.16,0,0,1,4.76,4.15"></path></svg>