<svg id="Режим_изоляции" data-name="Режим изоляции" xmlns="http://www.w3.org/2000/svg" width="32.83mm" height="40.05mm" viewBox="0 0 93.07 113.51"><defs><style>.cls-1,.cls-2{fill:none;stroke:#141515;stroke-miterlimit:10;}.cls-1{stroke-width:2.43px;}.cls-2{stroke-width:1.21px;}</style></defs><title>bonfire</title><path class="cls-1" d="M66.73,78.54c6,3.34,9.64,7.76,9.64,12.62V93.4h0c0,10.44-16.83,18.9-37.58,18.9S1.21,103.85,1.21,93.4h0V91.16c0-7,7.69-13.19,19.07-16.42"/><path class="cls-2" d="M76.37,90.77c0,10.45-16.83,18.9-37.58,18.9S1.21,101.21,1.21,90.77"/><path class="cls-1" d="M73.42,15.12v6.32h5.83c7,0,12.61,9.07,12.61,20.22S86.21,61.89,79.25,61.89H73.42v7.58h0c0,7.67-12.36,13.88-27.6,13.88S18.24,77.14,18.24,69.47h0V15.12c0-7.65,12.34-13.9,27.58-13.9s27.6,6.23,27.6,13.88m0,37.43C75,54.67,77,56,79.25,56c4.92,0,8.91-6.41,8.91-14.31s-4-14.32-8.91-14.32c-2.22,0-4.26,1.31-5.83,3.46V52.52Z"/><path class="cls-2" d="M73.42,15.09C73.42,22.77,61.06,29,45.82,29S18.24,22.77,18.24,15.09"/><path class="cls-2" d="M45.82,27.35c14.17,0,25.72-5.79,25.72-12.89S60,1.58,45.82,1.58,20.13,7.37,20.13,14.45,31.67,27.35,45.82,27.35h0Z"/></svg>