<svg id="Режим_изоляции" data-name="Режим изоляции" xmlns="http://www.w3.org/2000/svg" width="110px" height="102px" viewBox="0 0 109.62 102.11"><defs><style>.cls-1,.cls-2{fill:none;stroke:#141515;stroke-miterlimit:10;}.cls-1{stroke-width:1.21px;}.cls-2{stroke-width:2.43px;}</style></defs><title>cup</title><path class="cls-1" d="M38.81,11.36c20.7,0,37.6-2.18,37.6-4.83S59.52,1.67,38.81,1.67,1.21,3.85,1.21,6.53s16.89,4.83,37.6,4.83h0Z"></path><path class="cls-2" d="M86.5,14.64c12.11,0,21.91,15.71,21.91,35.11S98.61,84.86,86.5,84.86H76.41V96c0,2.68-16.83,4.86-37.6,4.86S1.21,98.72,1.21,96v-90c0-2.68,16.83-4.86,37.6-4.86s37.6,2.18,37.6,4.86v8.57H86.5Zm-10.09,54c2.72,3.73,6.24,6,10.09,6C95.07,74.6,102,63.47,102,49.75S95.07,24.9,86.5,24.9c-3.86,0-7.37,2.27-10.09,6V68.6Z"></path><path class="cls-1" d="M74.89,4.63c0,2.5-16.17,4.51-36.08,4.51S2.73,7.12,2.73,4.63"></path></svg>