<svg id="Режим_изоляции" data-name="Режим изоляции" xmlns="http://www.w3.org/2000/svg" width="104px" height="75px" viewBox="0 0 104.12 75.14"><defs><style>.cls-1,.cls-2{fill:none;stroke:#141515;stroke-miterlimit:10;}.cls-1{stroke-width:2.43px;}.cls-2{stroke-width:1.21px;}</style></defs><title>magnet</title><path class="cls-1" d="M1.21,63.19V9.41a8.18,8.18,0,0,1,8.12-8.2H92.76a8.18,8.18,0,0,1,8.1,8.2V63.19a8.18,8.18,0,0,1-8.1,8.2H9.33a8.18,8.18,0,0,1-8.12-8.2h0Z"></path><path class="cls-2" d="M92.76,1.21c4.63,0,10.75,3.34,10.75,8V66a8.51,8.51,0,0,1-8.44,8.52H9.15c-4.63,0-7.94-7.42-7.94-12.12"></path><line class="cls-2" x1="28.59" y1="21.23" x2="8.29" y2="67.41"></line><line class="cls-2" x1="45.12" y1="5.2" x2="20.51" y2="61.25"></line><line class="cls-2" x1="81.04" y1="5.2" x2="65.91" y2="39.62"></line><line class="cls-2" x1="92.67" y1="5.2" x2="65.32" y2="67.41"></line></svg>