<svg id="Режим_изоляции" data-name="Режим изоляции" xmlns="http://www.w3.org/2000/svg" width="105px" height="75px" viewBox="0 0 105.38 74.87"><defs><style>.cls-1,.cls-2{fill:none;stroke:#141515;stroke-miterlimit:10;}.cls-1{stroke-width:2.43px;}.cls-2{stroke-width:1.21px;}</style></defs><title>mouse_pad</title><path class="cls-1" d="M65.68,33.88h0.07a9,9,0,0,1,8.93,9V55.15a9,9,0,0,1-8.93,9H65.68a9,9,0,0,1-8.93-9V42.88a9,9,0,0,1,8.93-9h0Z"/><path class="cls-2" d="M65.71,39.19h0a1.17,1.17,0,0,1,1.16,1.17v4.93a1.17,1.17,0,0,1-1.16,1.17h0a1.17,1.17,0,0,1-1.16-1.17V40.36a1.17,1.17,0,0,1,1.16-1.17h0Z"/><polyline class="cls-2" points="65.73 39.19 65.73 33.88 65.75 33.88"/><path class="cls-1" d="M3.14,1.21h99.1a1.94,1.94,0,0,1,1.93,1.95V71.74a1.93,1.93,0,0,1-1.93,1.92H3.14a1.93,1.93,0,0,1-1.93-1.92V3.16A1.94,1.94,0,0,1,3.14,1.21h0Z"/></svg>