<svg id="Режим_изоляции" data-name="Режим изоляции" xmlns="http://www.w3.org/2000/svg" width="25.16mm" height="43.71mm" viewBox="0 0 71.32 123.91"><defs><style>.cls-1,.cls-2{fill:none;stroke:#141515;stroke-miterlimit:10;}.cls-1{stroke-width:2.43px;}.cls-2{stroke-width:1.21px;}</style></defs><title>phone_case</title><path class="cls-1" d="M9.24,1.21H62.06a8.12,8.12,0,0,1,8,8.13V114.57a8.12,8.12,0,0,1-8,8.13H9.24a8.1,8.1,0,0,1-8-8.13V9.34a8.1,8.1,0,0,1,8-8.13h0Z"/><path class="cls-2" d="M66,2.08a8.24,8.24,0,0,1,1.38,4.56V111a8.1,8.1,0,0,1-8.05,8.11H6.54a8.08,8.08,0,0,1-4.67-1.51"/><path class="cls-2" d="M9.81,7.19H22.08a2.47,2.47,0,0,1,2.45,2.47v1.47a2.46,2.46,0,0,1-2.45,2.45H9.81a2.45,2.45,0,0,1-2.45-2.45V9.67A2.45,2.45,0,0,1,9.81,7.19h0Z"/></svg>