<svg id="Режим_изоляции" data-name="Режим изоляции" xmlns="http://www.w3.org/2000/svg" width="123px" height="94px" viewBox="0 0 122.54 94.04"><defs><style>.cls-1,.cls-2{fill:none;stroke:#141515;stroke-miterlimit:10;}.cls-1{stroke-width:2.43px;}.cls-2{stroke-width:1.21px;}</style></defs><title>pillow</title><path class="cls-1" d="M18.28,2.53C25,5.09,29.49,2.16,36.7,2c24-.62,49-1.79,66.62,1.1C107.7,3.79,115.5,7,118.81,4.2c2-1.74,3.74-.09,1.34,3.28-2,2.73.3,19.74-1.13,39.21-1.25,16.93-10.59,29.91-10,40.82,0.14,2.79-2.34,6.18-4.74,5.13-3.63-1.6-7.23-3-10.88-4.21C62.44,78,38.81,86.33,6.2,80.49,3.63,80,.28,77.88,1.46,75.36c0.77-1.67,2.25-3.18,2.29-5,0.32-18.39,6.15-36.94,11-56,1.16-4.63,1.56-4.15.73-8.73-0.52-2.77.41-4,2.86-3.12h0Z"/><path class="cls-2" d="M104.53,70.87c9.55-24.26,3.33-45.72-9.68-48.21M46.25,53.1C57,54.31,69.06,52.48,82.35,48M31.6,34.73C46,47.49,63.41,45.52,80.65,44.28M15.77,21.47C12.73,33,14.7,39.86,19.67,45M45.9,81c-17.1-2.06-21.43-7.7-23.83-14.25"/></svg>