<svg id="Режим_изоляции" data-name="Режим изоляции" xmlns="http://www.w3.org/2000/svg" width="113px" height="100px" viewBox="0 0 112.43 100.21"><defs><style>.cls-1,.cls-2{fill:none;stroke:#141515;}.cls-1{stroke-miterlimit:10;stroke-width:1.21px;}.cls-2{stroke-linejoin:round;stroke-width:2.43px;}</style></defs><title>souvenir_t-shirt</title><path class="cls-1" d="M47.79,1.21c0,2.61-3.9,4.72-8.71,4.72s-8.73-2.11-8.73-4.72"></path><path class="cls-1" d="M82.1,28.49c0,2.61-3.9,4.7-8.73,4.7s-8.71-2.08-8.71-4.7"></path><path class="cls-2" d="M73.37,99H49.58V47.41L39.4,50.16,35.52,35.62c10.82-3.57,17.73-7,29.14-7.12,0,1.14,3.9,2.08,8.71,2.08s8.71-.94,8.71-2.08c11.41,0.16,18.32,3.55,29.14,7.12l-3.88,14.54L97.16,47.41V99H73.37Z"></path><path class="cls-1" d="M82.1,28.49c0,2.61-3.9,4.7-8.73,4.7s-8.71-2.08-8.71-4.7"></path><path class="cls-2" d="M49.58,71.71H15.27V20.13L5.09,22.9,1.21,8.34C12,4.76,18.95,1.37,30.35,1.21c0,1.17,3.9,2.08,8.71,2.11s8.71-.94,8.71-2.11C59.18,1.37,66.09,4.76,76.91,8.34L73,22.9,62.85,20.13v8.41"></path><path class="cls-2" d="M73.37,99H49.58V47.41L39.4,50.16,35.52,35.62c10.82-3.57,17.73-7,29.14-7.12,0,1.14,3.9,2.08,8.71,2.08s8.71-.94,8.71-2.08c11.41,0.16,18.32,3.55,29.14,7.12l-3.88,14.54L97.16,47.41V99H73.37Z"></path></svg>