<svg id="Режим_изоляции" data-name="Режим изоляции" xmlns="http://www.w3.org/2000/svg" width="69px" height="135px" viewBox="0 0 69.37 135.08"><defs><style>.cls-1,.cls-2{fill:none;stroke:#141515;}.cls-1{stroke-miterlimit:10;stroke-width:1.21px;}.cls-2{stroke-linejoin:round;stroke-width:2.43px;}</style></defs><title>sport_bottle</title><path class="cls-1" d="M64.21,33.3C64.21,34.79,54,36,41.44,36s-22.77-1.21-22.77-2.7"/><path class="cls-1" d="M66.25,21.21c0,1.63-11.11,2.93-24.81,2.93s-24.81-1.31-24.81-2.93"/><path class="cls-1" d="M66.25,29.64c0,1.63-11.11,2.93-24.81,2.93s-24.81-1.31-24.81-2.93"/><path class="cls-1" d="M29.88,8A12.56,12.56,0,0,1,34.66,7H60.31a3.12,3.12,0,0,0,0-6.23H34.66A17.77,17.77,0,0,0,23,5c-0.34.3-.68,0.62-1,0.94M58,7v7.7M28.93,15.78L1,8.31v-6l2-.82L59.9,15.16l6.17,5.66M18.22,13.06a13.08,13.08,0,0,0-.27,2.68V20"/><path class="cls-2" d="M58.25,7.42h2.25a3.1,3.1,0,0,0,0-6.21H34.84A17.65,17.65,0,0,0,23.23,5.43a13.57,13.57,0,0,0-1,.94L3.28,1.88,1.21,2.7v6L18.4,13.45a13.12,13.12,0,0,0-.27,2.68v4.26c-1,.32-1.5.41-1.5,0.82m0,0v8.91c0,0.87,3.92,1.28,0,5.27A11.51,11.51,0,0,0,15.21,37a2.68,2.68,0,0,0-.48,1.47v92.3c0,4.15,53.43,4.15,53.43,0V38.46A2.68,2.68,0,0,0,67.68,37a13.12,13.12,0,0,0-1.43-1.6c-4.54-4.6,0-4,0-5.27V21.21l-6.17-5.66-1.84-.44V7.42"/></svg>