<svg id="Режим_изоляции" data-name="Режим изоляции" xmlns="http://www.w3.org/2000/svg" width="37.78mm" height="35.25mm" viewBox="0 0 107.08 99.91"><defs><style>.cls-1,.cls-2{fill:none;stroke:#141515;}.cls-1{stroke-miterlimit:10;stroke-width:1.21px;}.cls-2{stroke-linejoin:round;stroke-width:2.43px;}</style></defs><title>t-shirt_with_colored_sleeves</title><path class="cls-1" d="M65.59,1.21c0,3.6-5.4,6.51-12,6.51s-12-2.91-12-6.51"/><path class="cls-2" d="M53.53,98.69H20.63V27.37L6.54,31.2,1.21,11c14.94-4.9,24.51-9.62,40.3-9.83,0,1.6,5.37,2.89,12,2.89s12-1.28,12-2.89C81.33,1.42,90.92,6.14,105.87,11L100.52,31.2,86.43,27.37V98.69H53.53Z"/><path class="cls-1" d="M68.79,0.92c0,5.31-6.83,9.6-15.24,9.6S38.29,6.23,38.29.92"/><path class="cls-1" d="M9.69,30.28L4.41,10.35m93,19.93,5.28-19.93"/><line class="cls-1" x1="20.63" y1="27.37" x2="32.46" y2="1.88"/><line class="cls-1" x1="86.43" y1="27.37" x2="74.62" y2="1.88"/></svg>