<svg id="Режим_изоляции" data-name="Режим изоляции" xmlns="http://www.w3.org/2000/svg" width="97px" height="114px" viewBox="0 0 96.72 113.51"><defs><style>.cls-1,.cls-2,.cls-3{fill:none;stroke:#141515;}.cls-1{stroke-linejoin:round;}.cls-1,.cls-3{stroke-width:2.43px;}.cls-2,.cls-3{stroke-miterlimit:10;}.cls-2{stroke-width:1.21px;}</style></defs><title>thermocup</title><path class="cls-1" d="M66.91,78.13c0,0.73-1.93,1.42-5.22,2v29.34c0,1.58-10.84,2.86-24.2,2.86S13.32,111,13.32,109.44V80.1c-3.29-.55-5.22-1.24-5.22-2v-70C4,7.7,1.21,7.21,1.21,6.71V4.63c0-1.76,34.56-3.41,37-3.41,15.83,0,28.69,1.54,28.69,3.41v73.5Z"/><path class="cls-2" d="M61.83,80.26a155.43,155.43,0,0,1-23.61,1.47c-10.75,0-20.09-.71-25-1.74"/><path class="cls-3" d="M66.91,9.14H74c8.84,0,14.63,2.75,18,7.9,3.27,4.9,4.06,11.8,3.08,20.34-1.07,9.18-3.38,15.41-7,19.45-3.83,4.28-8.84,6-15.15,6H66.91m0-6.14H73c4.56,0,8.12-1.15,10.64-4,2.74-3.07,4.56-8.2,5.44-16C89.9,29.55,89.38,24,87,20.45c-2.22-3.37-6.37-5.18-13-5.18h-7.1"/><path class="cls-2" d="M66.91,4.63C66.91,6.48,54.05,8,38.22,8c-2.45,0-37-1.65-37-3.39s34.56-3.41,37-3.41c15.83,0,28.69,1.54,28.69,3.41h0Z"/><path class="cls-2" d="M66.91,6.71c0,1.88-12.86,3.39-28.69,3.39-2.45,0-37-1.65-37-3.39"/></svg>