<svg id="Режим_изоляции" data-name="Режим изоляции" xmlns="http://www.w3.org/2000/svg" width="57px" height="139px" viewBox="0 0 57.18 139.19"><defs><style>.cls-1,.cls-2,.cls-3{fill:none;stroke:#141515;}.cls-1,.cls-2{stroke-miterlimit:10;}.cls-1,.cls-3{stroke-width:1.21px;}.cls-2{stroke-width:2.43px;}.cls-3{stroke-linejoin:round;}</style></defs><title>thermos</title><path class="cls-1" d="M2.87,36.26C2.24,34.5,14.24,29.3,29,23.87S55.24,15,55.87,16.75"/><path class="cls-2" d="M1.31,33.67c-1-1.21,6.53-9.51,16.71-18.35s19.09-15,20.39-14c2.18,1.35,4.58,3,5.46,6.92,5-.21,8.32-1.81,12.06,8,0.63,1.74-10.84,7.56-25.62,13S3.24,37.59,2.42,35.94Z"/><path class="cls-1" d="M50.43,34.24c0,2-10.43,3.57-23.29,3.57A98.15,98.15,0,0,1,7.93,36.26"/><path class="cls-1" d="M7.39,30.58a1.22,1.22,0,0,0,1.2-1.21,1.2,1.2,0,0,0-1.2-1.19,1.18,1.18,0,0,0-1.18,1.19,1.2,1.2,0,0,0,1.18,1.21h0Z"/><path class="cls-2" d="M3.87,36.4V54.17c0,0.37.63,0.73,1.79,1.05v80.21c0,1.4,9.66,2.54,21.59,2.54s21.61-1.15,21.61-2.54L48.64,55.23c1.16-.32,1.79-0.69,1.79-1.05V34.24c0-.92-3.27-1.33-4.08-1.47v-2c0-.87-2.31-1.53-5.78-2v-3.6"/><path class="cls-1" d="M46.35,30.74C46.35,32,37.75,33,27.14,33c-2.81,0-5.49-.07-7.89-0.18"/><path class="cls-3" d="M15,34.29c3.31,0.32,7.55.5,12.18,0.5,10.61,0,19.21-1,19.21-2.27"/><path class="cls-1" d="M48.86,129.09c0,1.4-9.66,2.54-21.61,2.54s-21.59-1.15-21.59-2.54"/><path class="cls-1" d="M40.56,28.82c0,0.85-6,1.56-13.31,1.56"/><path class="cls-1" d="M5.66,55.23c3.52,1,11.82,1.69,21.48,1.69,9.91,0,18.35-.73,21.72-1.76"/></svg>