<svg id="Режим_изоляции" data-name="Режим изоляции" xmlns="http://www.w3.org/2000/svg" width="74px" height="126px" viewBox="0 0 74.16 125.56"><defs><style>.cls-1,.cls-2,.cls-3{fill:none;stroke:#141515;}.cls-1,.cls-2{stroke-miterlimit:10;}.cls-1{stroke-width:2.43px;}.cls-2,.cls-3{stroke-width:1.21px;}.cls-3{stroke-linejoin:round;}</style></defs><title>thermoglasses</title><path class="cls-1" d="M4.28,12c-2,.53-3.06,1.12-3.06,1.74V24c0,2.34,16.06,4.24,35.88,4.24S72.94,26.39,72.94,24V13.72c0-.62-1.09-1.21-3.06-1.74V8.5c0-2.08-10.07-3.66-23.81-4.37-2.74-.14-2.88-2.91-9-2.91s-6.26,2.77-9,2.91C14.37,4.83,4.28,6.41,4.28,8.5V12Z"></path><path class="cls-2" d="M72.94,13.72c0,3-16.06,5.5-35.85,5.5S1.21,16.74,1.21,13.72"></path><path class="cls-1" d="M69.06,26l-9.68,95.74c0,1.47-10,2.63-22.29,2.63s-22.31-1.17-22.31-2.63L5.11,26"></path><path class="cls-2" d="M69.88,8.5c0,2.15-14.67,3.89-32.79,3.89S4.28,10.65,4.28,8.5"></path><path class="cls-3" d="M4.28,12c0,2.15,14.69,3.89,32.81,3.89S69.88,14.13,69.88,12"></path></svg>